<svg xmlns="http://www.w3.org/2000/svg" viewBox="0 0 92 91" width="92" height="91">
	<style>
		tspan { white-space:pre }
		.shp0 { fill: #a6a7b8 } 
	</style>
	<g id="Layer">
		<g id="Layer">
			<path id="Layer" fill-rule="evenodd" class="shp0" d="M18.48 44.02L20.65 44.02C21.4 44.02 21.98 44.13 22.41 44.33C22.83 44.53 23.13 44.83 23.31 45.25C23.49 45.66 23.58 46.21 23.58 46.89L23.58 50.25C23.58 50.94 23.49 51.51 23.31 51.94C23.13 52.37 22.83 52.69 22.41 52.91C22 53.13 21.43 53.24 20.72 53.24L18.48 53.24L18.48 44.02ZM20.68 52.06C21.05 52.06 21.32 52 21.48 51.87C21.65 51.74 21.76 51.56 21.8 51.33C21.85 51.1 21.87 50.76 21.87 50.3L21.87 46.78C21.87 46.37 21.84 46.06 21.79 45.84C21.74 45.63 21.63 45.48 21.46 45.37C21.28 45.27 21.02 45.22 20.65 45.22L20.15 45.22L20.15 52.07L20.68 52.07L20.68 52.06Z" />
			<path id="Layer" fill-rule="evenodd" class="shp0" d="M29.48 44.02L31.28 44.02L33.12 53.24L31.56 53.24L31.2 51.11L29.59 51.11L29.22 53.24L27.64 53.24L29.48 44.02ZM31.01 50.04L30.39 46.17L29.76 50.04L31.01 50.04Z" />
			<path id="Layer" class="shp0" d="M37.45 44.02L39.12 44.02L39.12 48.07L40.95 44.02L42.56 44.02L40.79 48.13L42.74 53.24L41.07 53.24L39.53 49.05L39.12 49.74L39.12 53.23L37.45 53.23L37.45 44.02L37.45 44.02Z" />
			<path id="Layer" fill-rule="evenodd" class="shp0" d="M47.31 52.59C46.9 52.08 46.7 51.33 46.7 50.35L46.7 46.89C46.7 45.91 46.9 45.17 47.31 44.67C47.72 44.17 48.4 43.92 49.36 43.92C50.3 43.92 50.98 44.17 51.39 44.67C51.8 45.17 52.01 45.91 52.01 46.89L52.01 50.35C52.01 51.33 51.8 52.07 51.39 52.59C50.98 53.1 50.3 53.36 49.36 53.36C48.4 53.36 47.72 53.1 47.31 52.59ZM50.11 51.77C50.24 51.54 50.3 51.19 50.3 50.75L50.3 46.51C50.3 46.06 50.24 45.72 50.11 45.49C49.99 45.27 49.73 45.15 49.36 45.15C48.98 45.15 48.72 45.27 48.59 45.5C48.46 45.73 48.4 46.07 48.4 46.51L48.4 50.75C48.4 51.19 48.46 51.54 48.59 51.77C48.72 52 48.98 52.12 49.36 52.12C49.73 52.12 49.98 52 50.11 51.77Z" />
			<path id="Layer" class="shp0" d="M57.56 45.27L56.02 45.27L56.02 44.02L60.74 44.02L60.74 45.27L59.23 45.27L59.23 53.24L57.56 53.24L57.56 45.27L57.56 45.27Z" />
			<path id="Layer" fill-rule="evenodd" class="shp0" d="M66.22 44.02L68.02 44.02L69.86 53.24L68.3 53.24L67.94 51.11L66.34 51.11L65.96 53.24L64.38 53.24L66.22 44.02ZM67.76 50.04L67.13 46.17L66.51 50.04L67.76 50.04Z" />
		</g>
		<g id="Layer">
			<g id="Layer">
				<path id="Layer" fill-rule="evenodd" class="shp0" d="M28.68 68.36C28.3 68.36 28.01 68.23 27.82 67.99C27.63 67.74 27.5 67.27 27.43 66.59C27.39 66.24 27.35 65.78 27.31 65.22C26.83 65.36 26.35 65.51 25.87 65.67L25.52 66.62C25.45 66.81 25.4 66.94 25.38 67.02C25.35 67.09 25.3 67.21 25.23 67.37C25.16 67.53 25.1 67.64 25.05 67.71C25 67.78 24.92 67.87 24.83 67.98C24.74 68.09 24.65 68.17 24.55 68.21C24.31 68.34 24.05 68.4 23.77 68.4C23.49 68.4 23.26 68.3 23.09 68.1C22.92 67.9 22.83 67.65 22.83 67.36C22.83 67.28 22.84 67.19 22.85 67.1C22.94 66.45 23.61 65.86 24.86 65.32C25.21 64.42 25.8 62.89 26.62 60.75C26.84 60.63 27.11 60.57 27.45 60.57C27.52 60.57 27.59 60.57 27.66 60.57C27.73 60.57 27.81 60.57 27.91 60.57C28.01 60.57 28.13 60.59 28.28 60.63C28.29 60.95 28.45 62.93 28.75 66.57C28.78 66.88 28.82 67.08 28.86 67.17C28.91 67.26 28.99 67.31 29.11 67.31C29.3 67.31 29.55 67.18 29.87 66.92C30.18 66.66 30.47 66.34 30.72 65.95L31 66.65L30.76 66.97C30.05 67.9 29.35 68.36 28.68 68.36ZM23.55 67.14C23.55 67.36 23.63 67.47 23.8 67.47C23.92 67.47 24.02 67.38 24.09 67.21C24.18 67.02 24.32 66.68 24.5 66.21C23.87 66.53 23.55 66.84 23.55 67.14ZM27.06 62.34L26.17 64.82C26.65 64.66 27 64.54 27.23 64.47L27.06 62.34Z" />
				<path id="Layer" fill-rule="evenodd" class="shp0" d="M34.31 60.7C34.48 60.62 34.68 60.58 34.91 60.58C35.15 60.58 35.32 60.62 35.44 60.68C35.37 61.21 35.26 62.05 35.11 63.18C34.8 65.55 34.64 66.86 34.64 67.1C34.64 67.34 34.74 67.46 34.95 67.46C35.13 67.46 35.31 67.35 35.5 67.13C35.69 66.91 35.86 66.55 36.02 66.04C36.21 66.23 36.34 66.43 36.42 66.65C36.17 67.45 35.79 67.98 35.26 68.22C35.03 68.33 34.8 68.39 34.59 68.39C33.99 68.39 33.58 68.17 33.38 67.74C33.02 68.18 32.57 68.4 32.02 68.4C31.47 68.4 31.01 68.21 30.63 67.84C30.26 67.47 30.07 66.97 30.07 66.36C30.07 65.47 30.33 64.76 30.85 64.23C31.37 63.7 32.04 63.43 32.84 63.43C32.86 63.43 32.88 63.43 32.9 63.43C33.18 63.43 33.44 63.48 33.68 63.56L33.99 60.99C34.04 60.87 34.15 60.78 34.31 60.7ZM32.99 64.23C32.56 64.23 32.21 64.39 31.96 64.72C31.7 65.05 31.55 65.54 31.5 66.2C31.5 66.26 31.49 66.32 31.49 66.37C31.49 66.7 31.57 66.97 31.73 67.17C31.89 67.36 32.1 67.46 32.35 67.46C32.78 67.46 33.1 67.16 33.32 66.55L33.58 64.36C33.36 64.27 33.16 64.23 32.99 64.23Z" />
				<path id="Layer" fill-rule="evenodd" class="shp0" d="M39.52 66.51C39.3 67.06 39 67.51 38.6 67.86C38.21 68.21 37.75 68.39 37.24 68.39C36.73 68.39 36.35 68.22 36.1 67.88C35.84 67.55 35.71 67.16 35.71 66.73C35.71 66.64 35.72 66.55 35.72 66.46L36.07 63.56C36.29 63.48 36.52 63.44 36.76 63.44C37.21 63.44 37.44 63.6 37.44 63.94C37.44 63.95 37.38 64.4 37.27 65.3C37.16 66.19 37.1 66.71 37.1 66.85C37.1 67.24 37.29 67.43 37.66 67.43C37.98 67.43 38.25 67.25 38.47 66.89C38.85 66.24 39.05 65.5 39.07 64.68L38.98 64.68C38.69 64.68 38.47 64.61 38.33 64.49C38.15 64.34 38.07 64.16 38.07 63.95C38.07 63.74 38.13 63.57 38.26 63.44C38.42 63.3 38.61 63.23 38.82 63.23C39.34 63.23 39.66 63.5 39.79 64.04C40 64.01 40.14 63.98 40.23 63.96L40.23 64.54L39.85 64.6L39.85 64.77C39.84 65.38 39.73 65.96 39.52 66.51ZM38.65 63.94C38.65 64.06 38.75 64.12 38.94 64.12C38.96 64.12 38.98 64.12 39 64.12C38.96 63.93 38.88 63.84 38.79 63.84C38.7 63.84 38.65 63.88 38.65 63.94Z" />
				<path id="Layer" class="shp0" d="M43.15 65.55C43.35 65.29 43.46 65.05 43.46 64.82C43.46 64.58 43.39 64.42 43.27 64.34C43.14 64.25 43.01 64.21 42.86 64.21C42.54 64.21 42.26 64.39 42.02 64.74C41.77 65.1 41.66 65.53 41.66 66.02C41.66 66.51 41.77 66.88 42.01 67.12C42.24 67.36 42.53 67.48 42.88 67.48C43.39 67.48 43.88 67.3 44.35 66.95C44.82 66.6 45.2 66.14 45.49 65.56C45.64 65.71 45.77 65.88 45.9 66.1C45.67 66.61 45.27 67.1 44.7 67.59C44.42 67.83 44.08 68.03 43.69 68.17C43.3 68.32 42.9 68.4 42.48 68.4C41.8 68.4 41.27 68.19 40.87 67.78C40.45 67.33 40.24 66.75 40.24 66.05C40.24 65.35 40.5 64.74 41.03 64.22C41.56 63.7 42.19 63.43 42.92 63.43C43.44 63.43 43.87 63.55 44.19 63.78C44.52 64 44.69 64.31 44.69 64.7C44.69 65.22 44.48 65.65 44.07 65.97C43.65 66.3 43.08 66.53 42.35 66.66L42.21 66.05C42.63 65.97 42.94 65.8 43.15 65.55Z" />
				<path id="Layer" class="shp0" d="M47.96 67.19L48.21 64.92C48.21 64.74 48.16 64.59 48.06 64.46C47.97 64.34 47.81 64.28 47.59 64.28C47.37 64.28 47.18 64.38 47.03 64.57C46.88 64.76 46.78 65.01 46.74 65.3C46.49 67.16 46.36 68.17 46.35 68.34L44.98 68.34L45.54 63.54C45.82 63.46 46.04 63.42 46.19 63.42C46.64 63.42 46.88 63.59 46.9 63.92C47.24 63.6 47.63 63.43 48.1 63.43C48.57 63.43 48.93 63.55 49.2 63.78C49.46 64.01 49.59 64.3 49.59 64.66C49.59 64.75 49.57 64.93 49.53 65.2C49.37 66.23 49.3 66.83 49.3 67C49.3 67.32 49.4 67.47 49.61 67.47C50.07 67.47 50.42 66.99 50.66 66.02C50.89 66.27 51.03 66.46 51.08 66.61C50.72 67.8 50.1 68.4 49.2 68.4C48.78 68.4 48.47 68.27 48.27 68.01C48.06 67.75 47.96 67.48 47.96 67.19Z" />
				<path id="Layer" fill-rule="evenodd" class="shp0" d="M52.65 61.24C52.65 61.28 52.56 62.02 52.38 63.43L53.88 63.43L53.88 64.22L52.27 64.22L52.24 64.47C53.04 65.14 53.44 65.87 53.44 66.65C53.44 67.27 53.28 67.72 52.96 67.99C52.65 68.26 52.27 68.4 51.83 68.4C51.38 68.4 51.06 68.28 50.86 68.05C50.65 67.81 50.55 67.53 50.55 67.19C50.55 67.12 50.56 67.04 50.57 66.95L50.89 64.24L50.85 64.22L50.02 64.22C50.01 64.15 50.01 64.04 50.01 63.89C50.01 63.73 50.04 63.58 50.1 63.43L50.98 63.43L51.31 60.66C51.45 60.61 51.64 60.58 51.88 60.58C52.39 60.58 52.65 60.8 52.65 61.24ZM52.75 66.65C52.75 66.18 52.55 65.72 52.14 65.26C52.02 66.27 51.96 66.86 51.96 67.01C51.96 67.32 52.06 67.47 52.25 67.47C52.4 67.47 52.52 67.41 52.61 67.27C52.71 67.14 52.75 66.93 52.75 66.65Z" />
				<path id="Layer" class="shp0" d="M58.4 63.54C58.12 65.74 57.98 66.91 57.98 67.05C57.98 67.33 58.08 67.46 58.28 67.46C58.45 67.46 58.65 67.34 58.85 67.1C59.06 66.86 59.22 66.5 59.35 66.01C59.57 66.26 59.71 66.45 59.76 66.58C59.6 67.24 59.35 67.71 59.01 67.98C58.67 68.25 58.32 68.39 57.96 68.39C57.37 68.39 56.97 68.16 56.77 67.7C56.42 68.16 55.94 68.39 55.35 68.39C54.86 68.39 54.49 68.27 54.22 68.02C53.96 67.78 53.82 67.46 53.82 67.06C53.82 66.97 53.84 66.8 53.87 66.56C54.03 65.3 54.15 64.29 54.23 63.55C54.44 63.47 54.63 63.43 54.81 63.43C54.99 63.43 55.12 63.44 55.21 63.45C55.3 63.47 55.38 63.52 55.46 63.61C55.55 63.7 55.59 63.82 55.59 63.98L55.25 66.58C55.24 66.67 55.23 66.74 55.23 66.81C55.23 67.21 55.41 67.41 55.78 67.41C56.12 67.41 56.4 67.24 56.63 66.91C56.63 66.84 56.63 66.72 56.65 66.55L56.98 63.84C57.03 63.73 57.13 63.63 57.29 63.55C57.44 63.48 57.64 63.44 57.88 63.44C58.11 63.44 58.28 63.47 58.4 63.54Z" />
				<path id="Layer" fill-rule="evenodd" class="shp0" d="M62.03 64.77C62.03 64.47 61.89 64.32 61.62 64.32C61.34 64.32 61.12 64.5 60.96 64.85C61.69 65.43 62.06 66.08 62.06 66.8C62.06 67.32 61.91 67.72 61.62 67.99C61.33 68.26 60.96 68.4 60.52 68.4C60.08 68.4 59.75 68.26 59.55 67.99C59.35 67.71 59.25 67.36 59.25 66.94C59.25 66.81 59.25 66.72 59.26 66.65L59.61 63.55C59.86 63.47 60.1 63.43 60.36 63.43C60.77 63.43 60.98 63.59 60.98 63.89L60.98 63.91C61.25 63.6 61.6 63.44 62.02 63.44C62.32 63.44 62.56 63.51 62.73 63.64C62.9 63.78 62.99 63.97 62.99 64.2C62.99 64.43 62.9 64.62 62.73 64.77C62.55 64.91 62.33 64.99 62.05 64.99C62.03 64.99 62.02 64.99 62.01 64.99C62.02 64.91 62.03 64.84 62.03 64.77ZM60.78 65.56C60.66 66.54 60.6 67.04 60.6 67.04C60.6 67.33 60.72 67.47 60.95 67.47C61.25 67.47 61.39 67.23 61.39 66.75C61.4 66.35 61.19 65.96 60.78 65.56Z" />
				<path id="Layer" class="shp0" d="M66.06 65.55C66.27 65.29 66.37 65.05 66.37 64.82C66.37 64.58 66.31 64.42 66.18 64.34C66.06 64.25 65.92 64.21 65.77 64.21C65.45 64.21 65.17 64.39 64.93 64.74C64.69 65.1 64.57 65.53 64.57 66.02C64.57 66.51 64.68 66.88 64.92 67.12C65.15 67.36 65.44 67.48 65.79 67.48C66.3 67.48 66.79 67.3 67.26 66.95C67.73 66.6 68.11 66.14 68.4 65.56C68.55 65.71 68.68 65.88 68.81 66.1C68.58 66.61 68.19 67.1 67.61 67.59C67.33 67.83 66.99 68.03 66.6 68.17C66.21 68.32 65.81 68.4 65.39 68.4C64.71 68.4 64.18 68.19 63.78 67.78C63.36 67.33 63.15 66.75 63.15 66.05C63.15 65.35 63.41 64.74 63.94 64.22C64.47 63.7 65.1 63.43 65.83 63.43C66.35 63.43 66.78 63.55 67.1 63.78C67.43 64 67.6 64.31 67.6 64.7C67.6 65.22 67.4 65.65 66.98 65.97C66.56 66.3 65.99 66.53 65.26 66.66L65.12 66.05C65.54 65.97 65.85 65.8 66.06 65.55Z" />
			</g>
		</g>
		<g id="Layer">
			<path id="Layer" class="shp0" d="M39.5 73.8C39.46 73.82 39.3 73.87 39.03 73.94C38.82 74 38.71 74.04 38.71 74.04L38.71 73.39C38.87 73.33 39.06 73.25 39.26 73.15C39.46 73.04 39.61 72.94 39.7 72.83L40.38 72.83L40.38 77.97L39.5 77.97L39.5 73.8Z" />
			<path id="Layer" fill-rule="evenodd" class="shp0" d="M42.59 77.71C42.39 77.49 42.28 77.16 42.27 76.73L42.27 76.66L43.12 76.66C43.12 76.9 43.15 77.08 43.21 77.18C43.27 77.29 43.39 77.34 43.57 77.34C43.73 77.34 43.85 77.26 43.91 77.1C43.98 76.95 44.01 76.67 44.01 76.28L44.01 75.67C43.95 75.78 43.86 75.85 43.74 75.91C43.62 75.96 43.47 75.99 43.3 75.99C42.58 75.99 42.22 75.49 42.22 74.48C42.22 73.94 42.33 73.52 42.54 73.22C42.76 72.92 43.1 72.77 43.56 72.77C44.02 72.77 44.36 72.91 44.58 73.21C44.8 73.51 44.91 73.91 44.91 74.42L44.91 76.24C44.91 76.8 44.81 77.24 44.61 77.56C44.4 77.87 44.06 78.03 43.56 78.03C43.12 78.03 42.8 77.92 42.59 77.71ZM44.01 75.05L44.01 74.25C44.01 74 43.98 73.8 43.91 73.66C43.85 73.51 43.73 73.44 43.56 73.44C43.39 73.44 43.27 73.52 43.21 73.67C43.14 73.82 43.11 74.05 43.11 74.35C43.11 74.58 43.12 74.76 43.13 74.89C43.15 75.02 43.19 75.12 43.25 75.2C43.32 75.28 43.42 75.32 43.56 75.32C43.76 75.32 43.9 75.23 44.01 75.05Z" />
			<path id="Layer" class="shp0" d="M46.45 77.65C46.26 77.39 46.17 77 46.17 76.49L47.02 76.49C47.02 76.78 47.06 77 47.12 77.15C47.18 77.3 47.31 77.37 47.49 77.37C47.63 77.37 47.74 77.33 47.8 77.24C47.87 77.15 47.92 77.02 47.94 76.87C47.96 76.72 47.96 76.5 47.96 76.22C47.96 75.89 47.93 75.64 47.87 75.48C47.8 75.32 47.67 75.23 47.47 75.23C47.36 75.23 47.26 75.28 47.17 75.36C47.09 75.43 47.03 75.55 46.99 75.68L46.24 75.68L46.29 72.82L48.6 72.82L48.6 73.61L47.02 73.61L46.97 74.85C47.04 74.77 47.15 74.7 47.28 74.65C47.42 74.61 47.57 74.58 47.73 74.58C48.09 74.58 48.36 74.72 48.54 75C48.71 75.27 48.8 75.66 48.8 76.17C48.8 76.56 48.76 76.89 48.69 77.16C48.62 77.44 48.48 77.65 48.29 77.8C48.09 77.96 47.82 78.04 47.46 78.04C46.98 78.04 46.64 77.91 46.45 77.65Z" />
			<path id="Layer" class="shp0" d="M51.36 73.5L49.97 73.5L49.97 72.82L52.23 72.82L52.23 73.36L51.19 77.96L50.34 77.96L51.36 73.5Z" />
		</g>
		<g id="Layer">
			<path id="Layer" fill-rule="evenodd" class="shp0" d="M91.29 38.72L91.29 58.03L91.27 58.03L85.35 63.32L85.35 65.63C85.33 67.21 84.36 68.87 83 69.68L47.91 89.74C47.22 90.13 46.4 90.3 45.57 90.3C44.74 90.3 43.91 90.13 43.22 89.74L8.07 69.68C6.72 68.87 5.75 67.21 5.72 65.63L5.72 63.14L0 58.03L0 38.72L5.72 38.72L5.72 24.67C5.75 23.09 6.71 21.43 8.07 20.62L43.16 0.56C43.85 0.17 44.68 0 45.51 0C46.33 0 47.16 0.17 47.85 0.56L83 20.62C84.36 21.43 85.33 23.09 85.35 24.67L85.35 38.72L91.29 38.72ZM7.04 38.72L9.83 38.72L9.83 26.65C9.84 25.34 10.69 23.88 11.82 23.22L43.52 5.1C44.09 4.77 44.8 4.62 45.51 4.62C46.22 4.62 46.93 4.77 47.5 5.1L79.25 23.22C80.38 23.88 81.23 25.34 81.25 26.65L81.25 38.72L84.03 38.72L84.03 24.67C84.06 23.69 83.21 22.23 82.35 21.77L47.2 1.71C46.78 1.46 46.14 1.32 45.51 1.32C44.87 1.32 44.23 1.47 43.81 1.71L8.72 21.77C7.86 22.22 7.01 23.69 7.04 24.67L7.04 38.72ZM79.08 38.71L80.59 38.71L80.59 26.65C80.6 25.64 79.81 24.28 78.93 23.79L47.17 5.67L47.33 5.38L47.17 5.67C46.73 5.42 46.12 5.28 45.51 5.28C44.89 5.28 44.28 5.42 43.85 5.67L12.14 23.79C11.26 24.28 10.47 25.64 10.48 26.65L10.48 38.72L11.49 38.72L20.36 33.67L15.93 38.72L22.27 38.72L21.38 33.17L24.43 34.76L33.15 28.44L23.13 38.72L31.69 38.72L36.59 31.2L32.31 31.79L36.14 26.68L37.74 28.86L50.72 15.79L31.75 38.72L45.78 38.72L53.46 30.39L44.86 32.79L56.07 21.08L48.47 22.59L54.48 12.62L64.77 25.83L46.08 38.72L63.81 38.72L68.3 31.9L62.94 32.84L67.66 24.47L79.08 38.72L79.08 38.71ZM1.32 56.71L89.97 56.71L89.97 40.03L1.32 40.03L1.32 56.71ZM84.03 65.63L84.03 58.03L81.25 58.03L81.25 63.65C81.23 64.96 80.38 66.42 79.25 67.09L47.55 85.21C46.98 85.53 46.27 85.68 45.56 85.68C44.86 85.68 44.15 85.53 43.58 85.21L11.82 67.08C10.69 66.42 9.84 64.96 9.83 63.65L9.83 58.03L7.04 58.03L7.04 65.63C7.01 66.61 7.86 68.08 8.73 68.53L43.88 88.59C44.3 88.83 44.93 88.98 45.57 88.98C46.2 88.98 46.84 88.83 47.26 88.59L82.35 68.53C83.21 68.08 84.06 66.61 84.03 65.63ZM10.49 58.03L10.49 63.66C10.47 64.66 11.26 66.03 12.15 66.51L43.9 84.63C44.34 84.88 44.95 85.02 45.56 85.02C46.18 85.02 46.79 84.88 47.22 84.63L78.93 66.51C79.81 66.03 80.6 64.66 80.59 63.65L80.59 58.03L10.49 58.03Z" />
		</g>
	</g>
</svg>