<svg xmlns="http://www.w3.org/2000/svg" viewBox="0 0 103 105" width="103" height="105">
	<style>
		tspan { white-space:pre }
		.shp0 { fill: #a6a7b8 } 
	</style>
	<g id="Layer">
		<g id="Layer">
			<g id="Layer">
				<path id="Layer" class="shp0" d="M42.71 69.42C42.65 69.46 42.44 69.53 42.06 69.63C41.76 69.72 41.6 69.77 41.6 69.77L41.6 68.85C41.83 68.77 42.1 68.65 42.38 68.51C42.66 68.36 42.87 68.21 43 68.05L43.96 68.05L43.96 75.3L42.71 75.3L42.71 69.42Z" />
				<path id="Layer" fill-rule="evenodd" class="shp0" d="M47.07 74.93C46.78 74.63 46.63 74.17 46.62 73.56L46.62 73.45L47.81 73.45C47.81 73.8 47.85 74.05 47.94 74.2C48.03 74.34 48.19 74.42 48.45 74.42C48.68 74.42 48.84 74.31 48.93 74.09C49.02 73.86 49.07 73.48 49.07 72.93L49.07 72.07C48.99 72.21 48.86 72.32 48.69 72.4C48.51 72.48 48.31 72.52 48.07 72.52C47.06 72.52 46.55 71.81 46.55 70.39C46.55 69.63 46.7 69.04 47 68.62C47.3 68.19 47.78 67.98 48.44 67.98C49.08 67.98 49.56 68.19 49.87 68.61C50.18 69.03 50.33 69.59 50.33 70.31L50.33 72.87C50.33 73.66 50.19 74.28 49.91 74.72C49.62 75.17 49.13 75.4 48.44 75.4C47.82 75.39 47.36 75.24 47.07 74.93ZM49.07 71.18L49.07 70.06C49.07 69.7 49.02 69.43 48.93 69.23C48.84 69.02 48.67 68.92 48.44 68.92C48.2 68.92 48.03 69.03 47.94 69.25C47.85 69.46 47.8 69.78 47.8 70.2C47.8 70.53 47.81 70.78 47.83 70.96C47.85 71.15 47.91 71.29 48 71.41C48.1 71.52 48.24 71.58 48.44 71.58C48.71 71.58 48.92 71.44 49.07 71.18Z" />
				<path id="Layer" class="shp0" d="M52.51 74.85C52.24 74.49 52.11 73.94 52.11 73.22L53.32 73.22C53.32 73.63 53.36 73.94 53.45 74.15C53.54 74.36 53.72 74.46 53.98 74.46C54.18 74.46 54.32 74.4 54.42 74.27C54.51 74.15 54.58 73.97 54.6 73.75C54.63 73.54 54.64 73.23 54.64 72.85C54.64 72.37 54.6 72.02 54.51 71.79C54.42 71.56 54.23 71.45 53.95 71.45C53.79 71.45 53.64 71.51 53.53 71.62C53.41 71.73 53.33 71.89 53.27 72.09L52.21 72.09L52.28 68.05L55.53 68.05L55.53 69.16L53.32 69.16L53.25 70.91C53.35 70.79 53.49 70.7 53.68 70.63C53.88 70.56 54.08 70.53 54.31 70.53C54.82 70.53 55.2 70.72 55.45 71.11C55.7 71.51 55.82 72.06 55.82 72.77C55.82 73.32 55.77 73.79 55.67 74.17C55.56 74.55 55.37 74.85 55.1 75.07C54.82 75.29 54.44 75.4 53.94 75.4C53.25 75.4 52.77 75.22 52.51 74.85Z" />
				<path id="Layer" class="shp0" d="M59.43 69L57.48 69L57.48 68.05L60.65 68.05L60.65 68.81L59.18 75.3L57.98 75.3L59.43 69Z" />
			</g>
			<g id="Layer">
				<path id="Layer" class="shp0" d="M32.67 58.74C31.96 57.73 31.61 56.28 31.61 54.39L31.61 48.66C31.61 46.71 31.97 45.24 32.7 44.25C33.43 43.26 34.69 42.76 36.47 42.76C38.16 42.76 39.36 43.18 40.09 44.02C40.83 44.85 41.19 46.09 41.19 47.73L41.19 48.62L38.22 48.62L38.22 47.65C38.22 47.03 38.18 46.54 38.11 46.17C38.03 45.81 37.87 45.53 37.62 45.33C37.38 45.14 37.01 45.04 36.52 45.04C36 45.04 35.61 45.16 35.36 45.42C35.11 45.67 34.94 45.99 34.86 46.39C34.79 46.78 34.75 47.29 34.75 47.92L34.75 55.06C34.75 56.03 34.88 56.75 35.14 57.23C35.4 57.71 35.89 57.95 36.6 57.95C37.3 57.95 37.79 57.7 38.07 57.19C38.34 56.68 38.48 55.93 38.48 54.92L38.48 53.31L36.64 53.31L36.64 51.36L41.28 51.36L41.28 60.01L39.26 60.01L39.04 58.35C38.51 59.61 37.55 60.24 36.16 60.24C34.54 60.24 33.38 59.74 32.67 58.74Z" />
				<path id="Layer" fill-rule="evenodd" class="shp0" d="M46.2 42.95L49.53 42.95L52.94 60.01L50.05 60.01L49.38 56.07L46.41 56.07L45.72 60.01L42.79 60.01L46.2 42.95ZM47.89 46.93L46.73 54.09L49.05 54.09L47.89 46.93Z" />
				<path id="Layer" class="shp0" d="M55.76 45.25L52.92 45.25L52.92 42.95L61.66 42.95L61.66 45.25L58.86 45.25L58.86 60.01L55.76 60.01L55.76 45.25L55.76 45.25Z" />
				<path id="Layer" class="shp0" d="M63.86 58.94C63.1 58.07 62.68 56.77 62.61 55.04L65.28 54.52C65.33 55.6 65.5 56.42 65.8 56.99C66.1 57.56 66.58 57.84 67.22 57.84C67.7 57.84 68.05 57.7 68.28 57.41C68.51 57.13 68.63 56.73 68.63 56.24C68.63 55.57 68.48 55 68.18 54.54C67.88 54.07 67.4 53.55 66.76 52.98L64.61 51.1C63.95 50.52 63.45 49.91 63.12 49.28C62.79 48.66 62.63 47.89 62.63 46.98C62.63 45.63 63.02 44.59 63.81 43.86C64.6 43.13 65.68 42.77 67.07 42.77C68.53 42.77 69.58 43.18 70.21 44.02C70.84 44.85 71.21 45.98 71.31 47.4L68.63 47.86C68.59 46.95 68.47 46.25 68.26 45.78C68.06 45.3 67.66 45.06 67.08 45.06C66.6 45.06 66.22 45.21 65.95 45.5C65.68 45.8 65.54 46.18 65.54 46.66C65.54 47.21 65.65 47.67 65.88 48.03C66.1 48.39 66.45 48.8 66.93 49.23L69.05 51.1C69.86 51.82 70.48 52.57 70.93 53.34C71.38 54.11 71.6 55.01 71.6 56.05C71.6 56.87 71.42 57.59 71.07 58.22C70.71 58.85 70.21 59.35 69.56 59.71C68.91 60.06 68.17 60.24 67.33 60.24C65.78 60.24 64.63 59.81 63.86 58.94Z" />
			</g>
			<g id="Layer">
				<g id="Layer">
					<path id="Layer" fill-rule="evenodd" class="shp0" d="M100.02 44.13L85.01 46.78L85.01 49.52L93.95 48.93L93.99 49.58L85.01 50.17L85.01 53.45L94.02 53.92L93.99 54.57L85.01 54.11L85.01 57.31L100.03 59.96L99.8 61.25L85.01 58.64L85.01 61.58L92.43 63.75L92.25 64.38L85.01 62.25L85.01 66.01L90.78 68.46L90.53 69.06L85.01 66.71L85.01 69.3C85 69.72 84.91 70.15 84.76 70.57L94.38 76.13L93.73 77.26L84.15 71.72C83.82 72.15 83.43 72.53 82.98 72.8L81.31 73.75L85.91 77.15L85.52 77.67L80.69 74.11L77.39 75.99L82.74 81.01L82.3 81.48L76.8 76.33L73.96 77.95L83.56 89.39L82.56 90.23L72.81 78.61L70.27 80.06L75.18 87.49L74.63 87.85L69.7 80.39L66.85 82.02L70.88 90.02L70.3 90.32L66.28 82.35L63.65 83.85L68.85 98.14L67.62 98.59L62.49 84.51L59.78 86.06L61.55 93.51L60.91 93.66L59.19 86.39L55.92 88.26L56.64 94.41L55.99 94.49L55.31 88.61L53.43 89.69C53 89.93 52.52 90.07 52.03 90.13L52.03 101.33L50.72 101.33L50.72 90.12C50.25 90.06 49.78 89.92 49.37 89.69L47.93 88.87L47.35 94.51L46.7 94.44L47.31 88.51L44.01 86.63L42.42 93.75L41.79 93.61L43.42 86.29L40.26 84.49L35.12 98.6L33.9 98.15L39.11 83.83L36.89 82.56L33.01 90.54L32.42 90.25L36.32 82.24L33.46 80.61L28.64 88.13L28.09 87.78L32.89 80.29L29.94 78.6L20.18 90.23L19.18 89.39L28.79 77.94L26.4 76.58L20.9 81.88L20.44 81.41L25.81 76.24L22.54 74.38L17.62 78.12L17.23 77.6L21.93 74.03L19.76 72.8C19.32 72.53 18.92 72.16 18.6 71.72L9 77.26L8.35 76.13L17.99 70.57C17.84 70.15 17.74 69.72 17.73 69.3L17.73 67.28L12.5 69.59L12.24 68.99L17.73 66.56L17.73 62.77L10.72 64.93L10.52 64.31L17.74 62.09L17.74 58.64L2.93 61.25L2.71 59.96L17.73 57.31L17.73 54.58L8.84 55.16L8.79 54.51L17.73 53.93L17.73 50.64L8.76 50.18L8.8 49.53L17.73 49.99L17.73 46.78L2.71 44.13L2.93 42.84L17.73 45.45L17.73 42.52L10.36 40.35L10.54 39.73L17.73 41.84L17.73 38.09L12 35.65L12.26 35.05L17.73 37.38L17.73 34.8C17.74 34.37 17.84 33.94 17.99 33.53L8.35 27.96L9 26.83L18.6 32.37C18.92 31.94 19.32 31.57 19.76 31.3L21.44 30.34L16.87 26.97L17.26 26.45L22.05 29.99L25.35 28.1L20.04 23.12L20.48 22.64L25.95 27.77L28.78 26.14L19.18 14.7L20.18 13.86L29.94 25.48L32.48 24.03L27.59 16.64L28.14 16.28L33.04 23.71L35.9 22.08L31.88 14.11L32.47 13.82L36.47 21.75L39.1 20.25L33.9 5.94L35.13 5.5L40.25 19.59L42.97 18.04L41.21 10.63L41.84 10.48L43.56 17.7L46.82 15.83L46.11 9.72L46.76 9.65L47.44 15.48L49.32 14.41C49.74 14.16 50.22 14.03 50.72 13.96L50.72 2.75L52.03 2.75L52.03 13.97C52.5 14.04 52.96 14.18 53.37 14.41L54.82 15.23L55.4 9.55L56.05 9.61L55.44 15.58L58.74 17.47L60.33 10.31L60.97 10.45L59.33 17.81L62.49 19.61L67.61 5.51L68.84 5.96L63.64 20.26L65.86 21.53L69.76 13.52L70.35 13.81L66.43 21.86L69.29 23.49L74.13 15.93L74.68 16.28L69.86 23.81L72.8 25.49L82.55 13.87L83.55 14.71L73.96 26.15L76.35 27.52L81.88 22.19L82.33 22.66L76.94 27.85L80.2 29.72L85.16 25.95L85.55 26.47L80.82 30.07L82.98 31.3C83.43 31.57 83.82 31.94 84.14 32.37L93.73 26.84L94.38 27.97L84.76 33.53C84.91 33.94 85 34.37 85.01 34.8L85.01 36.82L90.29 34.49L90.55 35.09L85.01 37.54L85.01 41.33L92.07 39.15L92.26 39.77L85.01 42.01L85.01 45.45L99.8 42.85L100.02 44.13ZM18.3 21.49L18.75 21.01L19.74 21.95L19.3 22.43L18.3 21.49ZM31.43 13.21L30.82 11.99L31.4 11.69L32.01 12.91L31.43 13.21ZM16.42 78.22L16.82 78.74L15.73 79.56L15.33 79.04L16.42 78.22ZM7.34 76.72L7.99 77.85L6.62 78.64L5.97 77.5L7.34 76.72ZM33.5 4.84L32.96 3.36L34.19 2.91L34.73 4.4L33.5 4.84ZM0.23 42.37L1.78 42.64L1.55 43.93L0 43.65L0.23 42.37ZM1.55 60.17L1.78 61.45L0.23 61.73L0 60.44L1.55 60.17ZM18.43 90.29L19.43 91.13L18.42 92.34L17.41 91.5L18.43 90.29ZM86.33 25.88L85.93 25.36L87.02 24.53L87.41 25.05L86.33 25.88ZM45.99 8.72L45.84 7.36L46.48 7.29L46.64 8.64L45.99 8.72ZM101.19 43.93L100.96 42.64L102.52 42.37L102.75 43.65L101.19 43.93ZM84.32 13.8L83.32 12.96L84.33 11.76L85.33 12.6L84.32 13.8ZM95.41 27.38L94.76 26.25L96.12 25.46L96.78 26.59L95.41 27.38ZM75.2 15.46L74.65 15.11L75.39 13.96L75.94 14.31L75.2 15.46ZM52.03 1.58L50.72 1.58L50.72 0L52.03 0L52.03 1.58ZM61.18 9.5L60.54 9.36L60.84 8.02L61.48 8.17L61.18 9.5ZM69.25 4.84L68.02 4.4L68.56 2.91L69.79 3.36L69.25 4.84ZM18.43 13.8L17.41 12.6L18.42 11.76L19.43 12.96L18.43 13.8ZM91.68 68.84L92.93 69.38L92.68 69.98L91.42 69.44L91.68 68.84ZM95.41 76.72L96.78 77.5L96.12 78.64L94.75 77.85L95.41 76.72ZM8.45 65.64L8.25 65.01L9.56 64.61L9.75 65.23L8.45 65.64ZM7.34 27.38L5.97 26.59L6.62 25.46L7.99 26.25L7.34 27.38ZM83.7 34.8C83.73 34.02 83.02 32.79 82.33 32.43L52.72 15.54C52.39 15.34 51.87 15.22 51.34 15.22C50.82 15.22 50.3 15.34 49.97 15.54L20.41 32.43C19.72 32.8 19.01 34.02 19.04 34.8L19.04 69.3C19.01 70.08 19.72 71.3 20.41 71.66L50.02 88.56C50.35 88.75 50.87 88.87 51.4 88.87C51.92 88.87 52.44 88.75 52.78 88.56L82.33 71.66C83.02 71.3 83.73 70.08 83.7 69.3L83.7 34.8ZM94.96 54.62L94.99 53.97L96.36 54.04L96.33 54.69L94.96 54.62ZM101.19 60.17L102.75 60.44L102.52 61.73L100.96 61.45L101.19 60.17ZM7.79 49.47L7.75 50.13L6.39 50.06L6.42 49.4L7.79 49.47ZM94.3 38.46L94.5 39.08L93.19 39.49L93 38.86L94.3 38.46ZM11.07 35.25L9.81 34.72L10.07 34.12L11.33 34.65L11.07 35.25ZM56.75 95.38L56.91 96.73L56.26 96.81L56.1 95.45L56.75 95.38ZM27.54 88.63L28.09 88.99L27.36 90.14L26.8 89.78L27.54 88.63ZM41.57 94.59L42.21 94.74L41.91 96.07L41.27 95.93L41.57 94.59ZM84.45 82.6L84 83.08L83 82.15L83.45 81.67L84.45 82.6ZM33.5 99.25L34.73 99.7L34.19 101.18L32.96 100.73L33.5 99.25ZM50.72 102.52L52.03 102.52L52.03 104.1L50.72 104.1L50.72 102.52ZM69.25 99.25L69.79 100.73L68.56 101.18L68.02 99.7L69.25 99.25ZM84.32 90.29L85.33 91.5L84.33 92.34L83.31 91.13L84.32 90.29ZM71.32 90.89L71.93 92.11L71.35 92.41L70.73 91.18L71.32 90.89Z" />
				</g>
			</g>
			<g id="Layer">
				<g id="Layer">
					<path id="Layer" fill-rule="evenodd" class="shp0" d="M56.95 32.93C56.72 33.04 56.34 33 55.93 32.88C55.05 34.34 53.34 35.33 51.37 35.33C49.41 35.33 47.7 34.34 46.82 32.87C46.4 33 46.02 33.04 45.79 32.93C45.29 32.67 45.75 31.2 46.2 30.42C46.32 30.22 46.43 30.06 46.53 29.98C46.62 29.91 46.71 29.82 46.9 30.14C47.02 30.36 47.18 30.53 47.35 30.67C48.06 31.26 48.98 31.2 48.77 31.61C48.65 31.87 48.3 32.16 47.87 32.41C48.47 33.35 49.56 34.02 50.84 34.17L50.84 29.92L50.02 29.92L50.02 29.07L50.84 29.07L50.84 28.2L48.46 28.2L49 27.2L50.84 27.2L50.84 26.21C50.19 25.99 49.73 25.38 49.73 24.66C49.73 23.75 50.47 23.02 51.37 23.02C52.28 23.02 53.01 23.75 53.01 24.66C53.01 25.38 52.55 25.99 51.9 26.21L51.9 27.2L53.74 27.2L54.28 28.2L51.9 28.2L51.9 29.07L52.72 29.07L52.72 29.92L51.9 29.92L51.9 34.17C53.18 34.02 54.27 33.35 54.88 32.41C54.45 32.16 54.09 31.87 53.97 31.62C53.76 31.2 54.69 31.26 55.4 30.67C55.57 30.53 55.72 30.36 55.84 30.14C56.03 29.82 56.12 29.91 56.21 29.98C56.31 30.06 56.43 30.23 56.55 30.43C57 31.21 57.45 32.67 56.95 32.93ZM51.37 25.2C51.67 25.2 51.91 24.96 51.91 24.66C51.91 24.36 51.67 24.12 51.37 24.12C51.07 24.12 50.83 24.36 50.83 24.66C50.83 24.96 51.07 25.2 51.37 25.2Z" />
				</g>
			</g>
			<g id="Layer">
				<g id="Layer">
					<g id="Layer">
						<path id="Layer" class="shp0" d="M32.35 71.56L32.35 70.87L36.94 70.87L36.94 71.56L32.35 71.56L32.35 71.56Z" />
					</g>
				</g>
				<g id="Layer">
					<g id="Layer">
						<path id="Layer" class="shp0" d="M65.81 71.56L65.81 70.87L70.4 70.87L70.4 71.56L65.81 71.56L65.81 71.56Z" />
					</g>
				</g>
			</g>
		</g>
	</g>
</svg>