<svg xmlns="http://www.w3.org/2000/svg" viewBox="0 0 140 72" width="140" height="72">
	<style>
		tspan { white-space:pre }
		.shp0 { fill: #a6a7b8 } 
	</style>
	<g id="Layer">
		<g id="Layer">
			<g id="Layer">
				<path id="Layer" class="shp0" d="M74.56 52.88C74.56 52.88 74.37 54.4 78.19 56.57C82.02 58.75 86.25 60.96 90.39 63.63C92.35 64.84 95.14 66.87 101.57 65.66C108 64.45 116.98 63.73 137.09 46.31C138.58 45.01 140.18 43.58 139.81 43.07C139.44 42.56 138.88 43.05 137.64 44.08C136.41 45.11 120.22 56.45 111.7 59.68C109.4 60.57 107.79 60.82 107.53 59.38C107.27 57.94 108.44 56.2 110.06 55.4C111.67 54.6 122.46 49.5 130.54 32.18C131.72 29.37 132.66 23.63 131.62 23.16C131.62 23.16 131.22 22.88 130.9 24.25C130.58 25.63 129.83 29.67 128.19 32.41C126.55 35.14 118.63 48.98 109.13 51.22C107.67 51.32 106.02 51.21 105.06 48.23C104.09 45.24 103.08 42.43 102.25 39.7C101.42 36.97 101.61 30.55 103.07 27.11C104.53 23.68 104.56 21.04 104.92 19.29C105.27 17.53 105.61 16.46 105.4 16.35C105.2 16.24 105.12 16.39 104.96 16.82C104.8 17.25 103.63 20.46 102.74 22.27C101.85 24.08 98.54 29.65 98.41 35.95C98.28 42.25 102.5 48.12 102.78 52.7C103.06 57.27 101.78 61.02 98.12 61C94.45 60.98 91.82 59.59 91.02 58.71C90.23 57.84 90.65 57.05 91.45 56.88C92.25 56.72 95.09 55.98 95.09 55.98C95.09 55.98 96.01 55.83 95.94 55.14C95.88 54.44 95.73 53.91 95.73 53.91C95.73 53.91 95.78 53.35 94.49 53.77C93.2 54.18 92.09 54.37 91.25 54.49C89.64 54.72 88.64 54.98 87.77 54.94C86.89 54.9 84.37 54.16 82.24 52.96C80.12 51.76 77.44 50.25 76.72 49.15C76.01 48.05 74.69 47.35 74.56 48.37C74.43 49.38 74.56 52.88 74.56 52.88Z" />
			</g>
			<g id="Layer">
				<path id="Layer" class="shp0" d="M65.31 52.88C65.31 52.88 65.5 54.4 61.68 56.57C57.85 58.75 53.62 60.96 49.47 63.63C47.52 64.84 44.73 66.87 38.3 65.66C31.87 64.45 22.88 63.73 2.78 46.31C1.29 45.01 -0.32 43.58 0.05 43.07C0.42 42.56 0.99 43.05 2.23 44.08C3.46 45.11 19.65 56.45 28.16 59.68C30.47 60.57 32.07 60.82 32.34 59.38C32.6 57.94 31.42 56.2 29.81 55.4C28.19 54.6 17.41 49.5 9.33 32.18C8.14 29.37 7.21 23.63 8.25 23.16C8.25 23.16 8.65 22.88 8.97 24.25C9.29 25.63 10.04 29.67 11.68 32.41C13.32 35.14 21.24 48.98 30.74 51.22C32.2 51.32 33.85 51.21 34.81 48.23C35.78 45.24 36.79 42.43 37.62 39.7C38.45 36.97 38.26 30.55 36.8 27.11C35.34 23.68 35.3 21.04 34.95 19.29C34.6 17.53 34.26 16.46 34.46 16.35C34.67 16.24 34.75 16.39 34.91 16.82C35.07 17.25 36.24 20.46 37.13 22.27C38.02 24.08 41.33 29.65 41.46 35.95C41.59 42.25 37.37 48.12 37.09 52.7C36.81 57.27 38.09 61.02 41.75 61C45.42 60.98 48.05 59.59 48.84 58.71C49.64 57.84 49.22 57.05 48.42 56.88C47.62 56.72 44.78 55.98 44.78 55.98C44.78 55.98 43.86 55.83 43.92 55.14C43.99 54.44 44.14 53.91 44.14 53.91C44.14 53.91 44.09 53.35 45.38 53.77C46.66 54.18 47.78 54.37 48.62 54.49C50.23 54.72 51.23 54.98 52.1 54.94C52.97 54.9 55.5 54.16 57.63 52.96C59.75 51.76 62.43 50.25 63.14 49.15C63.86 48.05 65.18 47.35 65.31 48.37C65.44 49.38 65.31 52.88 65.31 52.88Z" />
			</g>
			<g id="Layer">
				<path id="Layer" class="shp0" d="M48.04 33.23C47.36 32.26 47.01 30.85 47.01 29.01L47.01 23.46C47.01 21.57 47.37 20.15 48.07 19.19C48.78 18.23 50 17.75 51.73 17.75C53.36 17.75 54.53 18.15 55.24 18.96C55.95 19.77 56.3 20.97 56.3 22.57L56.3 23.42L53.42 23.42L53.42 22.48C53.42 21.88 53.38 21.41 53.31 21.05C53.23 20.7 53.08 20.43 52.84 20.24C52.6 20.05 52.24 19.95 51.77 19.95C51.27 19.95 50.89 20.08 50.65 20.32C50.4 20.57 50.24 20.88 50.17 21.26C50.09 21.64 50.05 22.14 50.05 22.75L50.05 29.67C50.05 30.61 50.18 31.31 50.43 31.77C50.68 32.23 51.16 32.46 51.85 32.46C52.53 32.46 53 32.22 53.27 31.73C53.53 31.24 53.67 30.51 53.67 29.53L53.67 27.97L51.89 27.97L51.89 26.08L56.38 26.08L56.38 34.47L54.42 34.47L54.22 32.85C53.7 34.08 52.77 34.69 51.42 34.69C49.86 34.69 48.73 34.2 48.04 33.23Z" />
				<path id="Layer" fill-rule="evenodd" class="shp0" d="M63.2 17.93L66.42 17.93L69.73 34.47L66.94 34.47L66.28 30.65L63.4 30.65L62.73 34.47L59.89 34.47L63.2 17.93ZM65.96 28.73L64.83 21.79L63.71 28.73L65.96 28.73Z" />
				<path id="Layer" class="shp0" d="M74.51 20.16L71.75 20.16L71.75 17.93L80.22 17.93L80.22 20.16L77.51 20.16L77.51 34.47L74.51 34.47L74.51 20.16L74.51 20.16Z" />
				<path id="Layer" class="shp0" d="M84.4 33.42C83.66 32.58 83.25 31.32 83.18 29.65L85.77 29.14C85.82 30.19 85.98 30.99 86.27 31.54C86.57 32.09 87.03 32.36 87.65 32.36C88.11 32.36 88.46 32.22 88.68 31.94C88.91 31.67 89.02 31.29 89.02 30.81C89.02 30.16 88.88 29.61 88.58 29.16C88.29 28.71 87.83 28.21 87.21 27.65L85.12 25.83C84.48 25.26 84 24.67 83.68 24.07C83.36 23.46 83.2 22.71 83.2 21.83C83.2 20.52 83.59 19.52 84.35 18.81C85.11 18.1 86.17 17.75 87.51 17.75C88.93 17.75 89.94 18.15 90.55 18.96C91.17 19.77 91.52 20.86 91.62 22.24L89.02 22.69C88.98 21.8 88.86 21.13 88.67 20.66C88.47 20.2 88.08 19.97 87.51 19.97C87.05 19.97 86.69 20.11 86.42 20.4C86.16 20.69 86.02 21.06 86.02 21.52C86.02 22.05 86.13 22.5 86.35 22.85C86.57 23.2 86.91 23.59 87.37 24.01L89.43 25.83C90.21 26.52 90.81 27.25 91.25 27.99C91.68 28.74 91.9 29.62 91.9 30.63C91.9 31.42 91.73 32.12 91.38 32.73C91.03 33.34 90.55 33.82 89.92 34.17C89.3 34.52 88.57 34.69 87.76 34.69C86.26 34.69 85.14 34.27 84.4 33.42Z" />
			</g>
			<g id="Layer">
				<g id="Layer">
					<path id="Layer" class="shp0" d="M63.29 40.2L64.6 40.2L64.6 43.47L63.98 43.47L63.98 40.75L63.29 40.75L63.29 40.2Z" />
					<path id="Layer" fill-rule="evenodd" class="shp0" d="M66.4 42.93C66.52 42.97 66.65 42.99 66.77 42.99C67.06 42.99 67.28 42.89 67.43 42.7C67.58 42.5 67.65 42.23 67.64 41.89C67.56 42.03 67.44 42.14 67.29 42.22C67.15 42.29 66.98 42.33 66.78 42.33C66.46 42.33 66.2 42.23 66.02 42.04C65.83 41.85 65.74 41.6 65.74 41.28C65.74 41.05 65.78 40.86 65.88 40.69C65.97 40.53 66.11 40.4 66.28 40.31C66.46 40.22 66.66 40.17 66.9 40.17C67.17 40.17 67.41 40.24 67.61 40.36C67.82 40.49 67.97 40.68 68.08 40.92C68.18 41.16 68.24 41.44 68.24 41.77C68.24 42.12 68.18 42.42 68.06 42.68C67.95 42.94 67.78 43.15 67.57 43.29C67.35 43.43 67.1 43.5 66.81 43.5C66.65 43.5 66.48 43.48 66.3 43.43C66.12 43.38 65.96 43.32 65.82 43.24L66.06 42.78C66.16 42.85 66.27 42.9 66.4 42.93ZM66.48 40.85C66.37 40.96 66.31 41.1 66.31 41.28C66.31 41.45 66.37 41.59 66.47 41.69C66.58 41.79 66.72 41.84 66.91 41.84C67.11 41.84 67.26 41.79 67.38 41.67C67.49 41.56 67.55 41.43 67.55 41.26C67.55 41.11 67.5 40.98 67.39 40.87C67.28 40.76 67.13 40.7 66.93 40.7C66.74 40.7 66.59 40.75 66.48 40.85Z" />
					<path id="Layer" fill-rule="evenodd" class="shp0" d="M71.23 40.4C71.43 40.56 71.53 40.77 71.53 41.03C71.53 41.18 71.49 41.32 71.41 41.44C71.32 41.56 71.21 41.66 71.07 41.72C71.26 41.8 71.41 41.9 71.53 42.05C71.64 42.2 71.69 42.37 71.69 42.56C71.69 42.75 71.64 42.91 71.54 43.06C71.43 43.2 71.29 43.31 71.1 43.38C70.9 43.46 70.68 43.5 70.42 43.5C70.17 43.5 69.95 43.46 69.75 43.39C69.56 43.31 69.42 43.2 69.31 43.06C69.21 42.92 69.16 42.76 69.16 42.57C69.16 42.37 69.22 42.2 69.33 42.05C69.45 41.91 69.6 41.8 69.81 41.73C69.65 41.65 69.54 41.55 69.45 41.43C69.37 41.3 69.32 41.16 69.32 41.01C69.32 40.75 69.42 40.55 69.62 40.4C69.82 40.25 70.08 40.17 70.42 40.17C70.76 40.17 71.03 40.25 71.23 40.4ZM69.92 42.13C69.81 42.21 69.75 42.34 69.75 42.5C69.75 42.66 69.81 42.78 69.92 42.88C70.04 42.97 70.21 43.01 70.42 43.01C70.64 43.01 70.8 42.97 70.92 42.88C71.04 42.79 71.1 42.66 71.1 42.5C71.1 42.34 71.04 42.22 70.92 42.13C70.8 42.04 70.64 42 70.42 42C70.21 42 70.04 42.04 69.92 42.13ZM70 40.74C69.9 40.82 69.85 40.93 69.85 41.07C69.85 41.21 69.9 41.32 70 41.39C70.1 41.47 70.24 41.51 70.42 41.51C70.61 41.51 70.75 41.47 70.85 41.39C70.95 41.32 71 41.21 71 41.07C71 40.93 70.95 40.82 70.85 40.74C70.75 40.66 70.61 40.62 70.42 40.62C70.24 40.62 70.1 40.66 70 40.74Z" />
					<path id="Layer" class="shp0" d="M72.42 40.2L74.94 40.2L74.94 40.67L73.59 43.47L72.93 43.47L74.23 40.75L72.98 40.75L72.97 41.21L72.42 41.21L72.42 40.2Z" />
				</g>
			</g>
			<g id="Layer">
				<path id="Layer" fill-rule="evenodd" class="shp0" d="M56.94 66.72C57.22 66.93 57.36 67.21 57.36 67.57C57.36 67.82 57.29 68.04 57.15 68.22C57.01 68.41 56.81 68.53 56.56 68.59C56.87 68.65 57.11 68.78 57.28 68.99C57.46 69.2 57.54 69.45 57.54 69.76C57.54 70.16 57.39 70.47 57.08 70.7C56.78 70.93 56.36 71.04 55.83 71.04L53.71 71.04L53.71 66.41L55.77 66.41C56.26 66.41 56.65 66.51 56.94 66.72ZM56.26 68.15C56.39 68.05 56.46 67.91 56.46 67.72C56.46 67.55 56.39 67.41 56.26 67.31C56.13 67.22 55.95 67.17 55.72 67.17L54.6 67.17L54.6 68.3L55.72 68.3C55.95 68.3 56.13 68.25 56.26 68.15ZM56.38 70.11C56.54 70 56.62 69.85 56.62 69.65C56.62 69.46 56.54 69.31 56.38 69.2C56.23 69.1 56.01 69.04 55.72 69.05L54.6 69.05L54.6 70.27L55.72 70.27C56.01 70.28 56.23 70.22 56.38 70.11Z" />
				<path id="Layer" fill-rule="evenodd" class="shp0" d="M62.49 71.04L62.08 70.06L59.82 70.06L59.41 71.04L58.49 71.04L60.52 66.41L61.44 66.41L63.44 71.04L62.49 71.04ZM60.13 69.3L61.76 69.3L60.95 67.36L60.13 69.3Z" />
				<path id="Layer" fill-rule="evenodd" class="shp0" d="M66.76 69.67C66.73 69.67 66.67 69.68 66.6 69.68L65.55 69.68L65.55 71.04L64.67 71.04L64.67 66.41L66.6 66.41C67.2 66.41 67.66 66.55 67.99 66.83C68.31 67.1 68.48 67.5 68.48 68C68.48 68.37 68.4 68.67 68.24 68.93C68.09 69.19 67.86 69.38 67.56 69.5L68.57 71.04L67.56 71.04L66.76 69.67ZM65.55 68.9L66.6 68.9C66.93 68.9 67.19 68.82 67.36 68.68C67.54 68.53 67.63 68.32 67.63 68.03C67.63 67.75 67.54 67.54 67.36 67.39C67.19 67.25 66.93 67.18 66.6 67.18L65.55 67.18L65.55 68.9Z" />
				<path id="Layer" fill-rule="evenodd" class="shp0" d="M72.21 69.67C72.17 69.67 72.12 69.68 72.04 69.68L71 69.68L71 71.04L70.11 71.04L70.11 66.41L72.04 66.41C72.64 66.41 73.1 66.55 73.43 66.83C73.76 67.1 73.92 67.5 73.92 68C73.92 68.37 73.84 68.67 73.69 68.93C73.53 69.19 73.3 69.38 73 69.5L74.02 71.04L73.01 71.04L72.21 69.67ZM71 68.9L72.04 68.9C72.38 68.9 72.63 68.82 72.81 68.68C72.98 68.53 73.07 68.32 73.07 68.03C73.07 67.75 72.98 67.54 72.81 67.39C72.63 67.25 72.38 67.18 72.04 67.18L71 67.18L71 68.9Z" />
				<path id="Layer" fill-rule="evenodd" class="shp0" d="M78.91 66.66C79.29 66.87 79.58 67.15 79.8 67.51C80.02 67.88 80.13 68.28 80.13 68.72C80.13 69.16 80.02 69.56 79.8 69.92C79.58 70.29 79.29 70.58 78.91 70.79C78.53 71 78.11 71.1 77.66 71.1C77.2 71.1 76.78 71 76.4 70.79C76.03 70.58 75.73 70.29 75.51 69.92C75.3 69.56 75.19 69.16 75.19 68.72C75.19 68.28 75.3 67.87 75.51 67.51C75.73 67.15 76.03 66.87 76.4 66.66C76.78 66.45 77.2 66.35 77.66 66.35C78.11 66.35 78.53 66.45 78.91 66.66ZM76.88 67.35C76.64 67.49 76.45 67.68 76.31 67.92C76.17 68.16 76.1 68.43 76.1 68.72C76.1 69.01 76.17 69.28 76.31 69.52C76.46 69.76 76.65 69.95 76.89 70.09C77.13 70.23 77.39 70.3 77.67 70.3C77.95 70.3 78.21 70.23 78.45 70.09C78.68 69.95 78.87 69.76 79.01 69.52C79.15 69.28 79.22 69.01 79.22 68.72C79.22 68.43 79.15 68.16 79.01 67.92C78.87 67.68 78.68 67.49 78.45 67.35C78.21 67.21 77.95 67.14 77.67 67.14C77.39 67.14 77.13 67.21 76.88 67.35Z" />
				<path id="Layer" class="shp0" d="M84.8 66.41L85.66 66.41L85.66 71.04L84.81 71.04L82.43 67.85L82.43 71.04L81.57 71.04L81.57 66.41L82.41 66.41L84.8 69.6L84.8 66.41Z" />
			</g>
			<g id="Layer">
				<path id="Layer" class="shp0" d="M39.23 10.47L41.65 8.67L42.07 9.26L40.33 10.56L41.04 11.5L42.62 10.32L43.06 10.91L41.47 12.09L42.5 13.47L41.83 13.97L39.23 10.47Z" />
				<path id="Layer" fill-rule="evenodd" class="shp0" d="M45.93 6.32C46.34 6.31 46.71 6.4 47.06 6.59C47.41 6.79 47.69 7.06 47.9 7.42C48.11 7.78 48.21 8.16 48.2 8.56C48.2 8.95 48.1 9.33 47.89 9.68C47.68 10.03 47.39 10.32 47.02 10.53C46.65 10.75 46.26 10.86 45.85 10.87C45.44 10.88 45.07 10.78 44.72 10.59C44.37 10.39 44.09 10.12 43.88 9.76C43.67 9.4 43.57 9.02 43.57 8.63C43.58 8.23 43.68 7.86 43.89 7.51C44.1 7.16 44.39 6.88 44.77 6.66C45.14 6.45 45.53 6.33 45.93 6.32ZM44.61 7.85C44.48 8.07 44.41 8.32 44.41 8.58C44.41 8.84 44.48 9.09 44.62 9.33C44.75 9.57 44.94 9.75 45.17 9.88C45.4 10.01 45.65 10.07 45.91 10.08C46.18 10.08 46.42 10.01 46.65 9.88C46.88 9.74 47.05 9.56 47.18 9.34C47.31 9.11 47.37 8.86 47.37 8.6C47.37 8.34 47.3 8.09 47.16 7.85C47.02 7.61 46.84 7.43 46.61 7.3C46.38 7.17 46.14 7.11 45.88 7.11C45.62 7.11 45.38 7.17 45.15 7.3C44.92 7.44 44.74 7.62 44.61 7.85Z" />
				<path id="Layer" fill-rule="evenodd" class="shp0" d="M51.38 3.75C51.78 3.79 52.15 3.92 52.47 4.16C52.79 4.39 53.03 4.7 53.19 5.08C53.36 5.46 53.41 5.85 53.36 6.24C53.31 6.64 53.16 7 52.91 7.32C52.66 7.64 52.34 7.89 51.94 8.06C51.54 8.23 51.14 8.29 50.74 8.25C50.33 8.21 49.97 8.07 49.65 7.83C49.32 7.6 49.08 7.29 48.92 6.91C48.76 6.52 48.7 6.13 48.75 5.74C48.81 5.35 48.96 4.99 49.21 4.67C49.46 4.36 49.78 4.11 50.18 3.94C50.58 3.77 50.98 3.71 51.38 3.75ZM49.88 5.09C49.72 5.31 49.63 5.54 49.59 5.8C49.56 6.06 49.6 6.32 49.7 6.57C49.81 6.82 49.97 7.03 50.19 7.18C50.4 7.34 50.64 7.44 50.9 7.47C51.16 7.5 51.41 7.47 51.65 7.36C51.9 7.26 52.09 7.1 52.25 6.89C52.4 6.68 52.49 6.45 52.52 6.18C52.55 5.92 52.52 5.67 52.41 5.41C52.3 5.16 52.14 4.96 51.93 4.8C51.72 4.64 51.49 4.55 51.23 4.52C50.97 4.48 50.72 4.52 50.48 4.62C50.24 4.73 50.04 4.89 49.88 5.09Z" />
				<path id="Layer" fill-rule="evenodd" class="shp0" d="M57.08 1.91C57.46 2 57.8 2.17 58.08 2.44C58.35 2.7 58.55 3.04 58.67 3.44C58.78 3.84 58.79 4.23 58.69 4.6C58.59 4.97 58.4 5.3 58.12 5.57C57.83 5.85 57.48 6.05 57.05 6.17L55.34 6.66L54.14 2.47L55.88 1.97C56.3 1.85 56.7 1.83 57.08 1.91ZM57.54 5.08C57.71 4.9 57.82 4.69 57.88 4.45C57.93 4.2 57.92 3.95 57.85 3.68C57.77 3.41 57.64 3.19 57.46 3.01C57.28 2.83 57.07 2.71 56.82 2.65C56.58 2.6 56.33 2.61 56.07 2.68L55.14 2.95L55.94 5.72L56.9 5.45C57.15 5.38 57.37 5.25 57.54 5.08Z" />
				<path id="Layer" class="shp0" d="M64.91 1.1C64.69 1.03 64.47 1 64.26 1.03C63.99 1.06 63.75 1.15 63.54 1.31C63.33 1.46 63.18 1.66 63.08 1.9C62.98 2.13 62.94 2.39 62.97 2.66C63 2.93 63.09 3.17 63.25 3.37C63.4 3.58 63.6 3.74 63.84 3.85C64.07 3.95 64.33 3.99 64.59 3.96C64.8 3.93 65 3.86 65.2 3.75C65.4 3.63 65.57 3.49 65.71 3.31L66.26 3.8C66.06 4.05 65.82 4.27 65.53 4.44C65.25 4.6 64.95 4.71 64.64 4.74C64.22 4.79 63.83 4.73 63.46 4.57C63.09 4.42 62.79 4.18 62.55 3.86C62.31 3.54 62.17 3.18 62.12 2.76C62.08 2.35 62.13 1.97 62.3 1.6C62.46 1.24 62.71 0.94 63.03 0.71C63.36 0.48 63.73 0.33 64.16 0.29C64.47 0.25 64.78 0.28 65.09 0.37C65.4 0.46 65.67 0.6 65.91 0.79L65.5 1.45C65.32 1.3 65.13 1.18 64.91 1.1Z" />
				<path id="Layer" fill-rule="evenodd" class="shp0" d="M70.74 0.29C71.09 0.49 71.37 0.76 71.58 1.1C71.78 1.44 71.88 1.82 71.88 2.24C71.88 2.65 71.77 3.03 71.57 3.37C71.37 3.71 71.09 3.98 70.73 4.18C70.38 4.38 69.98 4.48 69.55 4.48C69.12 4.48 68.72 4.38 68.37 4.18C68.01 3.98 67.74 3.71 67.53 3.36C67.33 3.02 67.23 2.64 67.23 2.23C67.23 1.81 67.33 1.43 67.54 1.09C67.74 0.75 68.02 0.49 68.38 0.29C68.73 0.1 69.13 0 69.56 0C69.99 0 70.39 0.1 70.74 0.29ZM68.83 0.94C68.6 1.07 68.42 1.25 68.29 1.48C68.15 1.7 68.09 1.95 68.08 2.23C68.08 2.5 68.15 2.75 68.29 2.98C68.42 3.21 68.6 3.39 68.83 3.52C69.05 3.66 69.3 3.72 69.56 3.72C69.83 3.73 70.07 3.66 70.29 3.53C70.52 3.39 70.7 3.21 70.83 2.99C70.96 2.76 71.02 2.51 71.02 2.23C71.02 1.96 70.96 1.71 70.83 1.48C70.7 1.26 70.52 1.08 70.3 0.95C70.07 0.81 69.83 0.75 69.57 0.75C69.3 0.75 69.06 0.81 68.83 0.94Z" />
				<path id="Layer" class="shp0" d="M73.83 0.18L74.78 0.31L75.83 3.29L77.63 0.7L78.57 0.83L77.98 5.15L77.22 5.05L77.65 1.95L75.94 4.42L75.41 4.35L74.42 1.51L74 4.61L73.24 4.51L73.83 0.18Z" />
				<path id="Layer" fill-rule="evenodd" class="shp0" d="M83.62 2.5C83.84 2.83 83.89 3.23 83.77 3.69C83.64 4.17 83.39 4.51 83.03 4.69C82.67 4.88 82.22 4.91 81.7 4.76L80.77 4.52L80.44 5.76L79.63 5.54L80.77 1.33L82.49 1.79C83.02 1.93 83.4 2.17 83.62 2.5ZM82.6 4.03C82.8 3.94 82.93 3.77 83 3.51C83.07 3.25 83.04 3.04 82.91 2.86C82.78 2.69 82.57 2.57 82.26 2.48L81.38 2.25L80.97 3.81L81.84 4.04C82.15 4.12 82.4 4.12 82.6 4.03Z" />
				<path id="Layer" fill-rule="evenodd" class="shp0" d="M87.01 7.94L86.98 6.94L85 6.17L84.3 6.89L83.5 6.58L86.86 3.2L87.66 3.52L87.85 8.27L87.01 7.94ZM85.53 5.61L86.96 6.17L86.92 4.19L85.53 5.61Z" />
				<path id="Layer" class="shp0" d="M93.63 6.36L94.35 6.75L92.29 10.59L91.59 10.22L91.03 6.51L89.61 9.16L88.89 8.78L90.95 4.93L91.65 5.3L92.21 9.02L93.63 6.36Z" />
				<path id="Layer" class="shp0" d="M99.09 9.9L96.11 11.41L95.3 12.59L94.61 12.11L95.41 10.96L95.76 7.6L96.45 8.08L96.27 10.45L98.4 9.43L99.09 9.9Z" />
			</g>
		</g>
	</g>
</svg>