<svg xmlns="http://www.w3.org/2000/svg" viewBox="0 0 98 88" width="98" height="88">
	<style>
		tspan { white-space:pre }
		.shp0 { fill: #a6a7b8 } 
	</style>
	<g id="Layer">
		<g id="Layer">
			<g id="Layer">
				<g id="Layer">
					<path id="Layer" class="shp0" d="M0 48.28L3.28 48.28L5.98 62.75L8.54 48.28L11.89 48.28L7.78 68.73L4.12 68.73L0 48.28Z" />
					<path id="Layer" class="shp0" d="M16.61 48.28L20.3 48.28L20.3 68.73L16.61 68.73L16.61 48.28L16.61 48.28Z" />
					<path id="Layer" class="shp0" d="M25.98 48.28L28.58 48.28L33.56 59.95L33.56 48.28L36.64 48.28L36.64 68.73L34.16 68.73L29.16 56.51L29.16 68.73L25.98 68.73L25.98 48.28Z" />
					<path id="Layer" class="shp0" d="M44.26 51.04L40.85 51.04L40.85 48.28L51.33 48.28L51.33 51.04L47.97 51.04L47.97 68.73L44.26 68.73L44.26 51.04L44.26 51.04Z" />
					<path id="Layer" fill-rule="evenodd" class="shp0" d="M58.45 48.28L62.44 48.28L66.53 68.73L63.07 68.73L62.26 64.01L58.7 64.01L57.87 68.73L54.36 68.73L58.45 48.28ZM61.86 61.64L60.47 53.06L59.08 61.64L61.86 61.64Z" />
					<path id="Layer" class="shp0" d="M72 67.21C71.15 66 70.72 64.27 70.72 61.99L70.72 55.13C70.72 52.79 71.16 51.02 72.04 49.84C72.91 48.65 74.42 48.06 76.56 48.06C78.58 48.06 80.02 48.56 80.9 49.56C81.77 50.56 82.21 52.05 82.21 54.02L82.21 55.08L78.65 55.08L78.65 53.91C78.65 53.17 78.6 52.59 78.51 52.15C78.42 51.71 78.22 51.37 77.93 51.14C77.64 50.9 77.19 50.78 76.61 50.78C75.98 50.78 75.52 50.94 75.22 51.24C74.91 51.54 74.71 51.93 74.62 52.4C74.53 52.87 74.48 53.49 74.48 54.24L74.48 62.8C74.48 63.96 74.64 64.83 74.95 65.4C75.26 65.98 75.85 66.26 76.71 66.26C77.55 66.26 78.13 65.96 78.46 65.35C78.79 64.75 78.95 63.84 78.95 62.63L78.95 60.71L76.76 60.71L76.76 58.36L82.31 58.36L82.31 68.74L79.89 68.74L79.63 66.74C79 68.26 77.84 69.01 76.18 69.01C74.24 69.01 72.85 68.41 72 67.21Z" />
					<path id="Layer" class="shp0" d="M87.69 48.28L96.27 48.28L96.27 50.91L91.4 50.91L91.4 56.79L95.24 56.79L95.24 59.39L91.4 59.39L91.4 66.19L96.32 66.19L96.32 68.74L87.69 68.74L87.69 48.28L87.69 48.28Z" />
				</g>
			</g>
			<g id="Layer">
				<g id="Layer">
					<path id="Layer" class="shp0" d="M18.52 86.31C17.96 85.68 17.66 84.74 17.61 83.49L19.55 83.11C19.57 83.89 19.7 84.49 19.92 84.9C20.14 85.31 20.48 85.52 20.95 85.52C21.3 85.52 21.55 85.42 21.72 85.21C21.89 85 21.97 84.71 21.97 84.36C21.97 83.87 21.86 83.46 21.64 83.12C21.43 82.79 21.08 82.41 20.61 81.99L19.06 80.63C18.58 80.21 18.22 79.77 17.98 79.31C17.74 78.86 17.62 78.3 17.62 77.64C17.62 76.67 17.91 75.91 18.48 75.38C19.05 74.86 19.84 74.59 20.84 74.59C21.9 74.59 22.66 74.89 23.12 75.5C23.58 76.1 23.84 76.92 23.91 77.95L21.97 78.28C21.94 77.62 21.85 77.12 21.71 76.77C21.56 76.42 21.27 76.25 20.84 76.25C20.5 76.25 20.22 76.36 20.03 76.57C19.83 76.79 19.73 77.07 19.73 77.41C19.73 77.81 19.81 78.14 19.97 78.4C20.14 78.67 20.39 78.96 20.74 79.27L22.28 80.63C22.86 81.15 23.31 81.69 23.64 82.25C23.96 82.81 24.12 83.47 24.12 84.22C24.12 84.81 24 85.33 23.74 85.79C23.48 86.25 23.11 86.61 22.64 86.87C22.18 87.13 21.64 87.26 21.03 87.26C19.91 87.26 19.07 86.94 18.52 86.31Z" />
					<path id="Layer" class="shp0" d="M32.77 76.39L30.7 76.39L30.7 74.73L37.04 74.73L37.04 76.39L35.01 76.39L35.01 87.09L32.77 87.09L32.77 76.39Z" />
					<path id="Layer" class="shp0" d="M45.86 82.37L43.36 74.73L45.46 74.73L46.99 79.63L48.43 74.73L50.49 74.73L48.02 82.37L48.02 87.09L45.86 87.09L45.86 82.37Z" />
					<path id="Layer" class="shp0" d="M57.68 74.73L59.92 74.73L59.92 85.55L62.93 85.55L62.93 87.09L57.68 87.09L57.68 74.73Z" />
					<path id="Layer" class="shp0" d="M70.21 74.73L75.4 74.73L75.4 76.31L72.45 76.31L72.45 79.87L74.78 79.87L74.78 81.44L72.45 81.44L72.45 85.55L75.43 85.55L75.43 87.09L70.21 87.09L70.21 74.73Z" />
				</g>
			</g>
			<g id="Layer">
				<g id="Layer">
					<path id="Layer" fill-rule="evenodd" class="shp0" d="M97.15 6.49C97.15 7.35 96.44 8.12 95.32 8.62L95.32 8.63C95.32 8.63 92.75 10.12 92.65 12.73C92.65 12.73 92.65 12.73 92.65 12.74C92.21 20.51 90 25.66 90 25.66L89.56 26.41C87.28 31.45 81.08 35.07 73.79 35.07C68.74 35.07 64.21 33.33 61.15 30.59C59.23 29.43 54.56 25.34 53.2 16.07C52.79 12.96 51.06 10.6 48.96 10.44C48.92 10.44 48.88 10.44 48.84 10.44C48.81 10.44 48.78 10.43 48.74 10.43C48.71 10.43 48.68 10.44 48.65 10.44C48.61 10.44 48.57 10.44 48.53 10.44C46.43 10.6 44.7 12.96 44.29 16.07C42.93 25.34 38.26 29.43 36.34 30.59C33.27 33.33 28.75 35.07 23.7 35.07C16.41 35.07 10.21 31.45 7.92 26.41L7.49 25.66C7.49 25.66 5.28 20.51 4.83 12.74C4.83 12.74 4.83 12.73 4.83 12.73C4.74 10.12 2.17 8.63 2.17 8.63L2.17 8.62C1.05 8.12 0.34 7.35 0.34 6.49C0.34 5.82 0.76 5.21 1.48 4.74C1.56 4.63 5.13 0.57 16.62 0.79C16.68 0.79 16.75 0.79 16.81 0.78C19.25 0.28 21.94 0 24.78 0C30.68 0 35.99 1.21 39.62 3.14L39.71 3.17C39.71 3.17 43.97 3.91 48.74 4.02C53.52 3.91 57.78 3.17 57.78 3.17L57.86 3.14C61.5 1.21 66.8 0 72.71 0C75.54 0 78.24 0.28 80.68 0.78C80.74 0.79 80.8 0.79 80.86 0.79C92.36 0.57 95.92 4.63 96.01 4.74C96.72 5.21 97.15 5.82 97.15 6.49ZM42.11 10.15C42.11 5.53 34.35 1.78 24.77 1.78C16.29 1.78 9.23 4.72 7.73 8.61L7.72 8.62C7.72 8.62 7.72 8.62 7.28 9.81C7.09 18.66 9.66 24.83 9.66 24.83L10.04 25.5C12.04 30.03 17.46 33.28 23.83 33.28C28.24 33.28 32.19 31.72 34.87 29.26C36.87 28.03 42.23 23.08 42.16 11.07C42.19 10.85 42.1 10.38 42.11 10.15ZM90.2 9.81C89.77 8.62 89.77 8.62 89.77 8.62L89.76 8.61C88.26 4.72 81.2 1.78 72.72 1.78C63.14 1.78 55.38 5.53 55.38 10.15C55.38 10.38 55.3 10.85 55.33 11.07C55.26 23.08 60.62 28.03 62.61 29.26C65.29 31.72 69.25 33.28 73.66 33.28C80.03 33.28 85.45 30.03 87.44 25.5L87.83 24.83C87.83 24.83 90.4 18.66 90.2 9.81Z" />
				</g>
			</g>
		</g>
	</g>
</svg>