<svg xmlns="http://www.w3.org/2000/svg" viewBox="0 0 94 95" width="94" height="95">
	<style>
		tspan { white-space:pre }
		.shp0 { fill: #a6a7b8 } 
	</style>
	<g id="Layer">
		<g id="Layer">
			<g id="Layer">
				<path id="Layer" class="shp0" d="M3.15 28.3C3.09 28.34 2.89 28.4 2.54 28.49C2.25 28.57 2.11 28.62 2.1 28.62L2.1 27.76C2.32 27.69 2.57 27.58 2.83 27.44C3.1 27.31 3.29 27.16 3.41 27.02L4.31 27.02L4.31 33.79L3.15 33.79L3.15 28.3Z" />
				<path id="Layer" fill-rule="evenodd" class="shp0" d="M7.22 33.45C6.95 33.16 6.81 32.73 6.8 32.17L6.8 32.07L7.91 32.07C7.91 32.39 7.95 32.62 8.03 32.76C8.11 32.9 8.27 32.97 8.5 32.97C8.72 32.97 8.87 32.86 8.96 32.66C9.04 32.45 9.09 32.09 9.09 31.57L9.09 30.77C9.01 30.9 8.89 31.01 8.73 31.08C8.56 31.15 8.37 31.19 8.15 31.19C7.2 31.19 6.73 30.53 6.73 29.2C6.73 28.49 6.87 27.94 7.15 27.54C7.43 27.14 7.88 26.94 8.49 26.94C9.1 26.94 9.54 27.14 9.83 27.53C10.12 27.93 10.27 28.46 10.27 29.13L10.27 31.52C10.27 32.26 10.13 32.84 9.87 33.25C9.6 33.67 9.15 33.88 8.49 33.88C7.91 33.88 7.49 33.74 7.22 33.45ZM9.09 29.94L9.09 28.89C9.09 28.56 9.04 28.3 8.96 28.11C8.87 27.93 8.71 27.83 8.49 27.83C8.27 27.83 8.12 27.93 8.03 28.14C7.94 28.34 7.9 28.64 7.9 29.03C7.9 29.33 7.91 29.57 7.93 29.74C7.95 29.91 8 30.05 8.09 30.15C8.17 30.26 8.31 30.31 8.5 30.31C8.75 30.31 8.95 30.19 9.09 29.94Z" />
				<path id="Layer" class="shp0" d="M12.3 33.38C12.05 33.03 11.93 32.52 11.93 31.85L13.05 31.85C13.05 32.23 13.1 32.52 13.18 32.72C13.26 32.91 13.43 33.01 13.67 33.01C13.86 33.01 13.99 32.95 14.08 32.83C14.17 32.71 14.23 32.55 14.25 32.35C14.28 32.14 14.29 31.86 14.29 31.5C14.29 31.05 14.25 30.73 14.17 30.51C14.08 30.3 13.91 30.2 13.65 30.2C13.49 30.2 13.36 30.25 13.25 30.35C13.14 30.46 13.06 30.6 13.01 30.79L12.02 30.79L12.08 27.02L15.13 27.02L15.13 28.06L13.05 28.06L12.99 29.69C13.08 29.58 13.22 29.5 13.4 29.43C13.57 29.37 13.77 29.33 13.98 29.33C14.46 29.33 14.82 29.52 15.05 29.88C15.28 30.25 15.39 30.76 15.39 31.42C15.39 31.94 15.35 32.38 15.25 32.74C15.15 33.09 14.97 33.38 14.72 33.58C14.46 33.79 14.1 33.89 13.63 33.89C12.99 33.89 12.54 33.72 12.3 33.38Z" />
				<path id="Layer" class="shp0" d="M18.77 27.91L16.94 27.91L16.94 27.02L19.91 27.02L19.91 27.72L18.54 33.79L17.42 33.79L18.77 27.91Z" />
			</g>
			<g id="Layer">
				<path id="Layer" class="shp0" d="M74.1 32.97L75.77 30.39L75.93 30.14C76.11 29.84 76.26 29.59 76.35 29.39C76.44 29.19 76.49 28.95 76.49 28.7C76.49 28.18 76.3 27.91 75.93 27.91C75.68 27.91 75.5 28.01 75.4 28.21C75.3 28.4 75.25 28.66 75.25 28.99L75.25 29.28L74.12 29.28L74.12 28.98C74.12 28.34 74.26 27.84 74.55 27.48C74.83 27.13 75.28 26.94 75.9 26.94C76.47 26.94 76.9 27.1 77.19 27.4C77.49 27.71 77.63 28.14 77.63 28.71C77.63 28.97 77.6 29.21 77.52 29.43C77.45 29.66 77.37 29.86 77.26 30.03C77.16 30.2 77.01 30.45 76.8 30.76L75.41 32.86L77.47 32.86L77.47 33.79L74.1 33.79L74.1 32.97L74.1 32.97Z" />
				<path id="Layer" fill-rule="evenodd" class="shp0" d="M79.58 33.35C79.28 33 79.13 32.52 79.13 31.92L79.13 28.92C79.13 28.31 79.28 27.82 79.57 27.47C79.86 27.12 80.31 26.94 80.9 26.94C81.49 26.94 81.93 27.12 82.22 27.47C82.51 27.83 82.66 28.31 82.66 28.92L82.66 31.92C82.66 32.52 82.51 33 82.21 33.35C81.91 33.71 81.47 33.89 80.9 33.89C80.33 33.89 79.89 33.71 79.58 33.35ZM81.49 31.91L81.49 28.94C81.49 28.65 81.45 28.41 81.37 28.22C81.3 28.03 81.14 27.94 80.91 27.94C80.67 27.94 80.51 28.03 80.43 28.22C80.35 28.4 80.31 28.64 80.31 28.94L80.31 31.91C80.31 32.57 80.51 32.89 80.91 32.89C81.3 32.89 81.49 32.56 81.49 31.91Z" />
				<path id="Layer" class="shp0" d="M85.67 28.3C85.61 28.34 85.41 28.4 85.06 28.49C84.77 28.57 84.63 28.62 84.62 28.62L84.62 27.76C84.85 27.69 85.09 27.58 85.36 27.44C85.62 27.31 85.81 27.16 85.94 27.02L86.83 27.02L86.83 33.79L85.67 33.79L85.67 28.3L85.67 28.3Z" />
				<path id="Layer" class="shp0" d="M91.12 27.91L89.29 27.91L89.29 27.02L92.25 27.02L92.25 27.72L90.88 33.79L89.77 33.79L91.12 27.91Z" />
			</g>
			<g id="Layer">
				<g id="Layer">
					<path id="Layer" fill-rule="evenodd" class="shp0" d="M0 70.29L3.72 70.29C5.14 70.29 6.23 70.57 6.99 71.14C7.76 71.71 8.14 72.69 8.14 74.07C8.14 75.96 7.41 77.03 5.96 77.25C7.7 77.59 8.56 78.83 8.56 80.97C8.58 82.41 8.23 83.51 7.52 84.25C6.81 85 5.76 85.37 4.36 85.37L0 85.37L0 70.29ZM5.32 75.92C5.61 75.56 5.75 74.99 5.75 74.2C5.75 73.42 5.57 72.9 5.19 72.62C4.81 72.34 4.18 72.2 3.3 72.2L2.74 72.2L2.74 76.45L3.69 76.45C4.48 76.45 5.02 76.27 5.32 75.92ZM3.8 83.43C4.61 83.43 5.16 83.24 5.47 82.85C5.79 82.47 5.94 81.84 5.94 80.95C5.94 80.05 5.77 79.39 5.43 78.97C5.09 78.56 4.51 78.35 3.7 78.35L2.74 78.35L2.74 83.43L3.8 83.43L3.8 83.43Z" />
					<path id="Layer" fill-rule="evenodd" class="shp0" d="M20.05 70.29L22.99 70.29L26.01 85.37L23.46 85.37L22.86 81.89L20.24 81.89L19.63 85.37L17.04 85.37L20.05 70.29ZM22.57 80.14L21.54 73.8L20.52 80.14L22.57 80.14Z" />
					<path id="Layer" class="shp0" d="M34.97 70.29L37.7 70.29L37.7 76.91L40.7 70.29L43.33 70.29L40.44 77.01L43.62 85.37L40.89 85.37L38.37 78.52L37.7 79.65L37.7 85.37L34.97 85.37L34.97 70.29L34.97 70.29Z" />
					<path id="Layer" class="shp0" d="M52.32 70.29L58.65 70.29L58.65 72.22L55.06 72.22L55.06 76.56L57.89 76.56L57.89 78.48L55.06 78.48L55.06 83.49L58.69 83.49L58.69 85.37L52.32 85.37L52.32 70.29L52.32 70.29Z" />
					<path id="Layer" fill-rule="evenodd" class="shp0" d="M71.37 70.29C72.96 70.29 74.14 70.59 74.92 71.19C75.71 71.79 76.1 72.82 76.1 74.29C76.1 75.25 75.96 76.02 75.68 76.63C75.4 77.23 74.92 77.67 74.24 77.94L76.34 85.37L73.58 85.37L71.78 78.46L70.47 78.46L70.47 85.37L67.74 85.37L67.74 70.29L71.37 70.29ZM71.35 76.75C72.13 76.75 72.69 76.57 73.01 76.21C73.34 75.85 73.51 75.26 73.51 74.44C73.51 73.64 73.36 73.07 73.07 72.71C72.78 72.35 72.25 72.17 71.5 72.17L70.47 72.17L70.47 76.75L71.35 76.75Z" />
					<path id="Layer" class="shp0" d="M87.7 79.61L84.64 70.29L87.21 70.29L89.07 76.26L90.82 70.29L93.34 70.29L90.32 79.61L90.32 85.37L87.7 85.37L87.7 79.61L87.7 79.61Z" />
				</g>
			</g>
			<g id="Layer">
				<path id="Layer" class="shp0" d="M23.74 90.51L25.39 90.51L25.39 91.02L24.47 91.02L24.47 92.19L25.22 92.19L25.22 92.7L24.47 92.7L24.47 94.52L23.74 94.52L23.74 90.51L23.74 90.51Z" />
				<path id="Layer" fill-rule="evenodd" class="shp0" d="M28.73 90.51C29.15 90.51 29.46 90.59 29.67 90.75C29.88 90.91 29.98 91.19 29.98 91.58C29.98 91.83 29.95 92.04 29.87 92.2C29.8 92.36 29.67 92.47 29.49 92.54L30.05 94.52L29.32 94.52L28.84 92.68L28.49 92.68L28.49 94.52L27.76 94.52L27.76 90.51L28.73 90.51ZM28.72 92.23C28.93 92.23 29.08 92.18 29.16 92.09C29.25 91.99 29.29 91.83 29.29 91.62C29.29 91.4 29.26 91.25 29.18 91.16C29.1 91.06 28.96 91.01 28.76 91.01L28.49 91.01L28.49 92.23L28.72 92.23L28.72 92.23Z" />
				<path id="Layer" class="shp0" d="M32.52 90.51L34.2 90.51L34.2 91.03L33.24 91.03L33.24 92.18L33.99 92.18L33.99 92.69L33.24 92.69L33.24 94.02L34.21 94.02L34.21 94.52L32.52 94.52L32.52 90.51L32.52 90.51Z" />
				<path id="Layer" class="shp0" d="M36.8 94.27C36.63 94.06 36.53 93.76 36.51 93.35L37.14 93.23C37.15 93.48 37.19 93.68 37.26 93.81C37.33 93.94 37.44 94.01 37.59 94.01C37.71 94.01 37.79 93.97 37.84 93.91C37.9 93.84 37.93 93.75 37.93 93.63C37.93 93.47 37.89 93.34 37.82 93.23C37.75 93.13 37.64 93 37.49 92.87L36.98 92.43C36.83 92.29 36.71 92.15 36.63 92C36.56 91.85 36.52 91.67 36.52 91.46C36.52 91.14 36.61 90.9 36.79 90.73C36.98 90.56 37.23 90.47 37.56 90.47C37.9 90.47 38.15 90.57 38.3 90.76C38.45 90.96 38.53 91.22 38.56 91.56L37.93 91.67C37.92 91.45 37.89 91.29 37.84 91.18C37.79 91.07 37.7 91.01 37.56 91.01C37.45 91.01 37.36 91.04 37.3 91.11C37.23 91.18 37.2 91.27 37.2 91.38C37.2 91.51 37.22 91.62 37.28 91.71C37.33 91.79 37.41 91.89 37.53 91.99L38.03 92.43C38.21 92.6 38.36 92.77 38.46 92.95C38.57 93.13 38.62 93.35 38.62 93.59C38.62 93.78 38.58 93.95 38.5 94.1C38.41 94.25 38.29 94.36 38.14 94.45C37.99 94.53 37.82 94.57 37.62 94.57C37.26 94.58 36.98 94.47 36.8 94.27Z" />
				<path id="Layer" class="shp0" d="M41.04 90.51L41.77 90.51L41.77 92.19L42.59 92.19L42.59 90.51L43.32 90.51L43.32 94.52L42.59 94.52L42.59 92.71L41.77 92.71L41.77 94.52L41.04 94.52L41.04 90.51Z" />
				<path id="Layer" fill-rule="evenodd" class="shp0" d="M50.08 90.51C50.45 90.51 50.74 90.59 50.95 90.74C51.15 90.89 51.25 91.15 51.25 91.52C51.25 92.02 51.06 92.3 50.67 92.36C51.13 92.45 51.36 92.78 51.36 93.35C51.37 93.73 51.27 94.02 51.09 94.22C50.9 94.42 50.62 94.52 50.24 94.52L49.09 94.52L49.09 90.51L50.08 90.51ZM50.07 92.15C50.28 92.15 50.42 92.1 50.5 92.01C50.58 91.91 50.62 91.76 50.62 91.55C50.62 91.35 50.57 91.21 50.47 91.13C50.37 91.06 50.2 91.02 49.96 91.02L49.82 91.02L49.82 92.15L50.07 92.15ZM50.1 94C50.31 94 50.46 93.95 50.54 93.85C50.63 93.75 50.67 93.58 50.67 93.35C50.67 93.11 50.62 92.93 50.53 92.82C50.44 92.71 50.29 92.66 50.07 92.66L49.81 92.66L49.81 94L50.1 94L50.1 94Z" />
				<path id="Layer" fill-rule="evenodd" class="shp0" d="M54.79 90.51C55.21 90.51 55.52 90.59 55.73 90.75C55.94 90.91 56.04 91.19 56.04 91.58C56.04 91.83 56.01 92.04 55.93 92.2C55.86 92.36 55.73 92.47 55.55 92.54L56.11 94.52L55.38 94.52L54.9 92.68L54.55 92.68L54.55 94.52L53.82 94.52L53.82 90.51L54.79 90.51ZM54.78 92.23C54.99 92.23 55.14 92.18 55.22 92.09C55.31 91.99 55.35 91.83 55.35 91.62C55.35 91.4 55.32 91.25 55.24 91.16C55.16 91.06 55.02 91.01 54.82 91.01L54.55 91.01L54.55 92.23L54.78 92.23L54.78 92.23Z" />
				<path id="Layer" class="shp0" d="M58.58 90.51L60.26 90.51L60.26 91.03L59.3 91.03L59.3 92.18L60.05 92.18L60.05 92.69L59.3 92.69L59.3 94.02L60.27 94.02L60.27 94.52L58.58 94.52L58.58 90.51L58.58 90.51Z" />
				<path id="Layer" fill-rule="evenodd" class="shp0" d="M63.27 90.51L64.05 90.51L64.85 94.52L64.17 94.52L64.01 93.59L63.32 93.59L63.16 94.52L62.47 94.52L63.27 90.51ZM63.94 93.13L63.66 91.45L63.39 93.13L63.94 93.13Z" />
				<path id="Layer" fill-rule="evenodd" class="shp0" d="M67.23 90.51L68.17 90.51C68.5 90.51 68.75 90.56 68.94 90.64C69.12 90.73 69.25 90.87 69.33 91.04C69.41 91.22 69.45 91.46 69.45 91.76L69.45 93.22C69.45 93.52 69.41 93.77 69.33 93.95C69.25 94.14 69.12 94.28 68.94 94.38C68.76 94.47 68.51 94.52 68.2 94.52L67.23 94.52L67.23 90.51ZM68.18 94.01C68.35 94.01 68.46 93.98 68.53 93.93C68.61 93.87 68.65 93.79 68.67 93.69C68.69 93.59 68.7 93.44 68.7 93.24L68.7 91.71C68.7 91.53 68.69 91.4 68.67 91.3C68.65 91.21 68.6 91.14 68.52 91.1C68.45 91.05 68.33 91.03 68.17 91.03L67.96 91.03L67.96 94.01L68.18 94.01L68.18 94.01Z" />
			</g>
			<g id="Layer">
				<path id="Layer" fill-rule="evenodd" class="shp0" d="M58.96 30.21L59.1 31.96L58.96 30.21L58.96 30.21ZM58.96 30.21L75.36 46.61C76.09 47.35 76.09 48.54 75.36 49.28L68.46 56.17C67.72 56.9 66.53 56.9 65.8 56.17L60.63 51.01L61.27 58.86C61.27 58.91 61.27 58.96 61.27 59.01C61.27 59.5 61.08 59.95 60.75 60.27C60.51 60.51 60.2 60.68 59.85 60.76C59.85 60.76 59.84 60.76 59.83 60.76C59.78 60.77 59.73 60.77 59.68 60.78C59.67 60.78 59.66 60.78 59.65 60.79C59.6 60.79 59.55 60.79 59.49 60.79C59.49 60.79 35.62 60.79 35.62 60.79C35.61 60.79 35.61 60.79 35.61 60.79C35.55 60.79 35.5 60.79 35.45 60.79C35.44 60.78 35.43 60.78 35.42 60.78C35.37 60.78 35.32 60.77 35.26 60.76C35.26 60.76 35.25 60.76 35.25 60.76C34.9 60.68 34.58 60.51 34.34 60.27C34.02 59.95 33.82 59.5 33.82 59.01C33.82 58.96 33.83 58.91 33.83 58.86L34.47 51L29.3 56.17C28.56 56.9 27.37 56.9 26.64 56.17L19.74 49.28C19.01 48.54 19.01 47.35 19.74 46.61L36.15 30.21L36.42 26.79L19.74 10.11C19.01 9.37 19.01 8.18 19.74 7.45L26.64 0.55C27.37 -0.18 28.56 -0.18 29.3 0.55L44.19 15.43L43.7 15.85L46.17 13.77C46.56 13.44 47.04 13.29 47.52 13.29C48 13.29 48.49 13.45 48.89 13.79L50.86 15.49L65.8 0.55C66.54 -0.18 67.73 -0.18 68.47 0.55L75.36 7.44C76.1 8.18 76.1 9.37 75.36 10.11L58.68 26.79L58.54 25.07L58.91 24.71L58.48 24.28L58.96 30.21ZM50.86 15.49L55.7 19.65L55.68 19.63L50.86 15.49L50.86 15.49ZM55.68 19.63L56.42 20.27C56.94 20.72 57.58 21.3 57.88 21.6C57.95 21.67 58.02 21.75 58.07 21.86C58.09 21.89 58.1 21.93 58.11 21.96C58.15 22.03 58.18 22.09 58.21 22.16L59.83 23.78L64.22 19.4L56.51 11.7L52.13 16.08L55.68 19.63ZM58.21 22.16C58.22 22.18 58.23 22.21 58.24 22.23C58.23 22.21 58.22 22.19 58.21 22.16L58.21 22.16ZM40.62 18.43L42.97 16.08L38.59 11.69L30.88 19.4L35.27 23.78L36.9 22.16C36.94 22.06 36.98 21.97 37.03 21.88L37.03 21.89C37.05 21.8 37.08 21.72 37.12 21.66C37.19 21.53 37.26 21.44 37.35 21.33C37.44 21.23 37.54 21.11 37.65 21C37.88 20.76 38.16 20.51 38.43 20.27L40.62 18.43ZM40.61 18.45L43.7 15.85L40.62 18.43L40.61 18.45ZM36.42 26.79L36.56 25.07L36.56 25.07L36.42 26.79L36.42 26.79ZM36.56 25.07L36.62 24.28L36.2 24.71L36.56 25.07ZM35.89 33.43L36.15 30.21L36.15 30.21L35.89 33.43ZM60.56 50.11L60.63 51L60.63 51.01L60.56 50.11ZM59.96 59.01C59.96 58.99 59.96 58.98 59.96 58.96L57.05 22.85C57.03 22.69 56.95 22.53 56.82 22.41C56.69 22.29 56.53 22.23 56.37 22.23L38.73 22.23C38.57 22.23 38.41 22.29 38.27 22.41C38.15 22.53 38.06 22.69 38.05 22.85L35.14 58.97C35.14 58.98 35.13 58.99 35.13 59.01C35.14 59.15 35.19 59.26 35.27 59.35C35.33 59.41 35.41 59.45 35.51 59.47C35.51 59.47 35.51 59.47 35.52 59.47C35.55 59.48 35.58 59.48 35.62 59.48L43.02 59.48L43.02 49.45C43.02 48.36 43.86 47.47 44.9 47.47L50.42 47.47C51.46 47.47 52.3 48.36 52.3 49.45L52.3 59.48L59.49 59.48C59.64 59.48 59.75 59.43 59.83 59.35C59.91 59.26 59.96 59.15 59.96 59.01ZM62.75 5.46L70.45 13.16L74.43 9.18C74.54 9.07 74.6 8.93 74.6 8.78C74.6 8.63 74.54 8.48 74.43 8.37L67.54 1.48C67.43 1.37 67.28 1.31 67.13 1.31C66.98 1.31 66.84 1.37 66.73 1.48L62.75 5.46ZM65.14 18.47L69.53 14.09L61.82 6.38L57.44 10.77L65.14 18.47ZM24.64 13.16L32.35 5.46L28.37 1.48C28.26 1.37 28.12 1.31 27.97 1.31C27.82 1.31 27.67 1.37 27.56 1.48L20.67 8.37C20.56 8.48 20.5 8.63 20.5 8.78C20.5 8.93 20.56 9.07 20.67 9.18L24.64 13.16ZM29.96 18.47L37.66 10.77L33.28 6.38L25.57 14.09L29.96 18.47ZM59.23 33.55L59.88 41.66L64.22 37.32L59.83 32.94L59.23 33.55ZM39.7 20.92L55.16 20.92L48.03 14.78C47.91 14.67 47.72 14.61 47.52 14.61C47.32 14.61 47.13 14.67 47.01 14.77L39.7 20.92ZM30.88 37.32L35.22 41.66L35.88 33.55L35.27 32.94L30.88 37.32ZM32.35 51.26L24.65 43.56L20.67 47.54C20.56 47.65 20.5 47.79 20.5 47.94C20.5 48.09 20.56 48.24 20.67 48.35L27.56 55.24C27.68 55.35 27.82 55.41 27.97 55.41C28.12 55.41 28.26 55.35 28.37 55.24L32.35 51.26ZM35.08 43.37L29.96 38.25L25.57 42.63L33.28 50.34L34.63 48.99L35.04 43.88L35.08 43.37ZM50.99 59.48L50.99 49.45C50.99 49.29 50.93 49.14 50.82 49.03C50.72 48.91 50.58 48.85 50.42 48.85L44.9 48.85C44.74 48.85 44.6 48.91 44.5 49.03C44.39 49.14 44.33 49.29 44.33 49.45L44.33 59.48L50.99 59.48ZM61.82 50.34L69.53 42.63L65.14 38.25L60.02 43.37L60.06 43.88L60.47 48.99L61.82 50.34ZM74.6 47.94C74.6 47.79 74.54 47.65 74.43 47.54L70.45 43.56L62.75 51.26L66.73 55.24C66.84 55.35 66.98 55.41 67.13 55.41C67.28 55.41 67.43 55.35 67.54 55.24L74.43 48.35C74.54 48.24 74.6 48.09 74.6 47.94ZM59.73 60.79C59.74 60.79 59.74 60.79 59.74 60.79C59.74 60.79 59.73 60.79 59.73 60.79L59.73 60.79ZM35.86 59.48C35.83 59.48 35.79 59.48 35.76 59.47C35.79 59.48 35.83 59.48 35.86 59.48Z" />
			</g>
		</g>
	</g>
</svg>